%TF.GenerationSoftware,KiCad,Pcbnew,9.0.3*%
%TF.CreationDate,2025-07-30T22:28:19-05:00*%
%TF.ProjectId,stm32_cad,73746d33-325f-4636-9164-2e6b69636164,rev?*%
%TF.SameCoordinates,Original*%
%TF.FileFunction,Paste,Top*%
%TF.FilePolarity,Positive*%
%FSLAX46Y46*%
G04 Gerber Fmt 4.6, Leading zero omitted, Abs format (unit mm)*
G04 Created by KiCad (PCBNEW 9.0.3) date 2025-07-30 22:28:19*
%MOMM*%
%LPD*%
G01*
G04 APERTURE LIST*
G04 Aperture macros list*
%AMRoundRect*
0 Rectangle with rounded corners*
0 $1 Rounding radius*
0 $2 $3 $4 $5 $6 $7 $8 $9 X,Y pos of 4 corners*
0 Add a 4 corners polygon primitive as box body*
4,1,4,$2,$3,$4,$5,$6,$7,$8,$9,$2,$3,0*
0 Add four circle primitives for the rounded corners*
1,1,$1+$1,$2,$3*
1,1,$1+$1,$4,$5*
1,1,$1+$1,$6,$7*
1,1,$1+$1,$8,$9*
0 Add four rect primitives between the rounded corners*
20,1,$1+$1,$2,$3,$4,$5,0*
20,1,$1+$1,$4,$5,$6,$7,0*
20,1,$1+$1,$6,$7,$8,$9,0*
20,1,$1+$1,$8,$9,$2,$3,0*%
G04 Aperture macros list end*
%ADD10RoundRect,0.250000X-0.250000X-0.475000X0.250000X-0.475000X0.250000X0.475000X-0.250000X0.475000X0*%
%ADD11RoundRect,0.243750X-0.243750X-0.456250X0.243750X-0.456250X0.243750X0.456250X-0.243750X0.456250X0*%
%ADD12RoundRect,0.250000X0.262500X0.450000X-0.262500X0.450000X-0.262500X-0.450000X0.262500X-0.450000X0*%
%ADD13RoundRect,0.250000X0.475000X-0.250000X0.475000X0.250000X-0.475000X0.250000X-0.475000X-0.250000X0*%
%ADD14RoundRect,0.250000X0.250000X0.475000X-0.250000X0.475000X-0.250000X-0.475000X0.250000X-0.475000X0*%
%ADD15RoundRect,0.243750X-0.456250X0.243750X-0.456250X-0.243750X0.456250X-0.243750X0.456250X0.243750X0*%
%ADD16RoundRect,0.250000X-0.262500X-0.450000X0.262500X-0.450000X0.262500X0.450000X-0.262500X0.450000X0*%
%ADD17R,1.600000X1.300000*%
%ADD18RoundRect,0.250000X-0.450000X0.262500X-0.450000X-0.262500X0.450000X-0.262500X0.450000X0.262500X0*%
%ADD19RoundRect,0.250000X-0.475000X0.250000X-0.475000X-0.250000X0.475000X-0.250000X0.475000X0.250000X0*%
%ADD20RoundRect,0.250000X0.450000X-0.262500X0.450000X0.262500X-0.450000X0.262500X-0.450000X-0.262500X0*%
%ADD21RoundRect,0.150000X0.512500X0.150000X-0.512500X0.150000X-0.512500X-0.150000X0.512500X-0.150000X0*%
%ADD22RoundRect,0.150000X-0.150000X0.512500X-0.150000X-0.512500X0.150000X-0.512500X0.150000X0.512500X0*%
%ADD23RoundRect,0.075000X0.075000X-0.662500X0.075000X0.662500X-0.075000X0.662500X-0.075000X-0.662500X0*%
%ADD24RoundRect,0.075000X0.662500X-0.075000X0.662500X0.075000X-0.662500X0.075000X-0.662500X-0.075000X0*%
%ADD25RoundRect,0.200000X-0.200000X-0.800000X0.200000X-0.800000X0.200000X0.800000X-0.200000X0.800000X0*%
G04 APERTURE END LIST*
D10*
%TO.C,C9*%
X104400000Y-72950000D03*
X106300000Y-72950000D03*
%TD*%
D11*
%TO.C,D9*%
X117862500Y-71600000D03*
X119737500Y-71600000D03*
%TD*%
D12*
%TO.C,R3*%
X109572500Y-81250000D03*
X107747500Y-81250000D03*
%TD*%
D13*
%TO.C,C12*%
X161200000Y-71649999D03*
X161200000Y-69750001D03*
%TD*%
%TO.C,C3*%
X138075000Y-77924999D03*
X138075000Y-76025001D03*
%TD*%
D14*
%TO.C,C4*%
X124374999Y-83925000D03*
X122475001Y-83925000D03*
%TD*%
D15*
%TO.C,D2*%
X142800000Y-98950000D03*
X142800000Y-100825002D03*
%TD*%
D16*
%TO.C,R44*%
X138362500Y-70650000D03*
X140187500Y-70650000D03*
%TD*%
D17*
%TO.C,Y1*%
X129050000Y-91600000D03*
X132350000Y-91600000D03*
X132350000Y-89600000D03*
X129050000Y-89600000D03*
%TD*%
D11*
%TO.C,D3*%
X111837500Y-81250000D03*
X113712500Y-81250000D03*
%TD*%
D12*
%TO.C,R4*%
X109572500Y-78612500D03*
X107747500Y-78612500D03*
%TD*%
D18*
%TO.C,R7*%
X104700000Y-68962500D03*
X104700000Y-70787500D03*
%TD*%
D11*
%TO.C,D5*%
X111837500Y-75975000D03*
X113712500Y-75975000D03*
%TD*%
D19*
%TO.C,C6*%
X137925000Y-86750001D03*
X137925000Y-88649999D03*
%TD*%
D20*
%TO.C,R2*%
X142800000Y-96937501D03*
X142800000Y-95112501D03*
%TD*%
D12*
%TO.C,R5*%
X109572500Y-75975000D03*
X107747500Y-75975000D03*
%TD*%
D10*
%TO.C,C7*%
X156025000Y-97475000D03*
X157925000Y-97475000D03*
%TD*%
D19*
%TO.C,C11*%
X134700000Y-89750001D03*
X134700000Y-91649999D03*
%TD*%
D21*
%TO.C,U2*%
X153237500Y-100049999D03*
X153237500Y-99100000D03*
X153237500Y-98150001D03*
X150962500Y-98150001D03*
X150962500Y-100049999D03*
%TD*%
D13*
%TO.C,C8*%
X147875000Y-100599999D03*
X147875000Y-98700001D03*
%TD*%
D22*
%TO.C,U4*%
X131175000Y-70075000D03*
X130225001Y-70075000D03*
X129275002Y-70075000D03*
X129275002Y-72350000D03*
X130225001Y-72350000D03*
X131175000Y-72350000D03*
%TD*%
D23*
%TO.C,U3*%
X128500000Y-85425000D03*
X129000000Y-85425000D03*
X129500000Y-85425000D03*
X130000001Y-85425000D03*
X130500000Y-85425000D03*
X131000000Y-85425000D03*
X131500000Y-85425000D03*
X132000000Y-85425000D03*
X132499999Y-85425000D03*
X133000000Y-85425000D03*
X133500000Y-85425000D03*
X134000000Y-85425000D03*
D24*
X135412500Y-84012500D03*
X135412500Y-83512500D03*
X135412500Y-83012500D03*
X135412500Y-82512499D03*
X135412500Y-82012500D03*
X135412500Y-81512500D03*
X135412500Y-81012500D03*
X135412500Y-80512500D03*
X135412500Y-80012501D03*
X135412500Y-79512500D03*
X135412500Y-79012500D03*
X135412500Y-78512500D03*
D23*
X134000000Y-77100000D03*
X133500000Y-77100000D03*
X133000000Y-77100000D03*
X132499999Y-77100000D03*
X132000000Y-77100000D03*
X131500000Y-77100000D03*
X131000000Y-77100000D03*
X130500000Y-77100000D03*
X130000001Y-77100000D03*
X129500000Y-77100000D03*
X129000000Y-77100000D03*
X128500000Y-77100000D03*
D24*
X127087500Y-78512500D03*
X127087500Y-79012500D03*
X127087500Y-79512500D03*
X127087500Y-80012501D03*
X127087500Y-80512500D03*
X127087500Y-81012500D03*
X127087500Y-81512500D03*
X127087500Y-82012500D03*
X127087500Y-82512499D03*
X127087500Y-83012500D03*
X127087500Y-83512500D03*
X127087500Y-84012500D03*
%TD*%
D18*
%TO.C,FB3*%
X121950000Y-68962500D03*
X121950000Y-70787500D03*
%TD*%
D25*
%TO.C,SW1*%
X98050000Y-72575000D03*
X102250000Y-72575000D03*
%TD*%
D16*
%TO.C,R20*%
X125037500Y-74900000D03*
X126862500Y-74900000D03*
%TD*%
D11*
%TO.C,D4*%
X111837500Y-78612500D03*
X113712500Y-78612500D03*
%TD*%
D16*
%TO.C,R18*%
X134862500Y-70650000D03*
X136687500Y-70650000D03*
%TD*%
D14*
%TO.C,C5*%
X124324999Y-86800000D03*
X122425001Y-86800000D03*
%TD*%
D20*
%TO.C,R11*%
X137475000Y-65462500D03*
X137475000Y-63637500D03*
%TD*%
D13*
%TO.C,C10*%
X126750000Y-91699999D03*
X126750000Y-89800001D03*
%TD*%
D14*
%TO.C,C1*%
X124224999Y-77175000D03*
X122325001Y-77175000D03*
%TD*%
D16*
%TO.C,R19*%
X117887500Y-74825000D03*
X119712500Y-74825000D03*
%TD*%
D20*
%TO.C,R12*%
X123125000Y-65437500D03*
X123125000Y-63612500D03*
%TD*%
D14*
%TO.C,C13*%
X150524999Y-92900000D03*
X148625001Y-92900000D03*
%TD*%
M02*
