M48
; DRILL file {KiCad 9.0.3} date 2025-07-30T22:28:17-0500
; FORMAT={-:-/ absolute / inch / decimal}
; #@! TF.CreationDate,2025-07-30T22:28:17-05:00
; #@! TF.GenerationSoftware,Kicad,Pcbnew,9.0.3
; #@! TF.FileFunction,Plated,1,2,PTH
FMAT,2
INCH
; #@! TA.AperFunction,Plated,PTH,ViaDrill
T1C0.0118
; #@! TA.AperFunction,Plated,PTH,ComponentDrill
T2C0.0157
; #@! TA.AperFunction,Plated,PTH,ComponentDrill
T3C0.0236
; #@! TA.AperFunction,Plated,PTH,ComponentDrill
T4C0.0315
; #@! TA.AperFunction,Plated,PTH,ComponentDrill
T5C0.0394
%
G90
G05
T1
X3.8159Y-2.8543
X4.1191Y-2.9409
X4.2283Y-2.8061
X4.2638Y-2.7234
X4.2638Y-3.1457
X4.2648Y-3.0433
X4.2697Y-2.939
X4.5496Y-2.7768
X4.7141Y-2.8189
X4.7451Y-3.0
X4.7657Y-3.0217
X4.7923Y-3.4852
X4.7982Y-3.2461
X4.8209Y-2.9774
X4.8376Y-2.935
X4.8612Y-2.6299
X4.9439Y-3.2372
X4.9459Y-3.2648
X4.9754Y-2.874
X5.0128Y-3.4892
X5.065Y-2.9734
X5.0886Y-2.9341
X5.1033Y-3.4695
X5.127Y-2.7589
X5.127Y-2.8484
X5.1644Y-2.7589
X5.1821Y-3.4567
X5.2156Y-3.4341
X5.2234Y-3.6624
X5.2766Y-2.8524
X5.2913Y-3.6594
X5.375Y-2.9872
X5.4114Y-3.5571
X5.4262Y-2.4557
X5.5335Y-3.0689
X5.5443Y-2.7175
X5.6831Y-3.7215
X5.7992Y-3.6486
X5.8327Y-3.8307
X6.033Y-3.9016
X6.1427Y-3.8376
X6.1984Y-3.3055
X6.251Y-3.8947
X6.3337Y-2.687
X6.4268Y-3.3039
T2
X5.0069Y-2.5132
X5.0069Y-2.5663
X5.0404Y-2.5663
X5.0404Y-2.5132
X5.0738Y-2.5132
X5.0738Y-2.5663
X5.1073Y-2.5132
X5.1073Y-2.5663
X5.1407Y-2.5132
X5.1407Y-2.5663
X5.1742Y-2.5663
X5.1742Y-2.5132
X5.2077Y-2.5132
X5.2077Y-2.5663
X5.2411Y-2.5132
X5.2411Y-2.5663
T4
X6.0433Y-2.9606
X6.0433Y-3.0606
X6.0433Y-3.1606
X6.0433Y-3.2606
X6.0433Y-3.3606
X6.0433Y-3.4606
X6.0433Y-3.5606
X6.0433Y-3.6606
X6.3433Y-2.9606
X6.3433Y-3.0606
X6.3433Y-3.1606
X6.3433Y-3.2606
X6.3433Y-3.3606
X6.3433Y-3.4606
X6.3433Y-3.5606
X6.3433Y-3.6606
T5
X3.8583Y-3.2622
X3.8583Y-3.3622
X4.1872Y-2.44
X4.1872Y-2.54
X4.2872Y-2.44
X4.2872Y-2.54
X4.3872Y-2.44
X4.3872Y-2.54
X4.4872Y-2.44
X4.4872Y-2.54
X4.5872Y-2.44
X4.5872Y-2.54
X4.9472Y-4.1969
X5.0472Y-4.1969
X5.1472Y-4.1969
X5.4744Y-4.1959
X5.5744Y-4.1959
X5.6362Y-2.4675
X5.7362Y-2.4675
X5.8362Y-2.4675
X5.8732Y-4.2008
X5.9362Y-2.4675
X5.9732Y-4.2008
X6.0732Y-4.2008
X6.147Y-2.4665
X6.1732Y-4.2008
X6.247Y-2.4665
X6.5404Y-3.1598
X6.5404Y-3.2598
X6.5404Y-3.3598
X6.5404Y-3.4598
T3
G00X4.9537Y-2.4104
M15
G01X4.9537Y-2.3789
M16
G05
G00X4.9537Y-2.5573
M15
G01X4.9537Y-2.4982
M16
G05
G00X5.2943Y-2.4104
M15
G01X5.2943Y-2.3789
M16
G05
G00X5.2943Y-2.5573
M15
G01X5.2943Y-2.4982
M16
G05
M30
