%TF.GenerationSoftware,KiCad,Pcbnew,9.0.3*%
%TF.CreationDate,2025-07-30T22:28:19-05:00*%
%TF.ProjectId,stm32_cad,73746d33-325f-4636-9164-2e6b69636164,rev?*%
%TF.SameCoordinates,Original*%
%TF.FileFunction,Copper,L2,Bot*%
%TF.FilePolarity,Positive*%
%FSLAX46Y46*%
G04 Gerber Fmt 4.6, Leading zero omitted, Abs format (unit mm)*
G04 Created by KiCad (PCBNEW 9.0.3) date 2025-07-30 22:28:19*
%MOMM*%
%LPD*%
G01*
G04 APERTURE LIST*
G04 Aperture macros list*
%AMRoundRect*
0 Rectangle with rounded corners*
0 $1 Rounding radius*
0 $2 $3 $4 $5 $6 $7 $8 $9 X,Y pos of 4 corners*
0 Add a 4 corners polygon primitive as box body*
4,1,4,$2,$3,$4,$5,$6,$7,$8,$9,$2,$3,0*
0 Add four circle primitives for the rounded corners*
1,1,$1+$1,$2,$3*
1,1,$1+$1,$4,$5*
1,1,$1+$1,$6,$7*
1,1,$1+$1,$8,$9*
0 Add four rect primitives between the rounded corners*
20,1,$1+$1,$2,$3,$4,$5,0*
20,1,$1+$1,$4,$5,$6,$7,0*
20,1,$1+$1,$6,$7,$8,$9,0*
20,1,$1+$1,$8,$9,$2,$3,0*%
G04 Aperture macros list end*
%TA.AperFunction,ComponentPad*%
%ADD10C,0.700000*%
%TD*%
%TA.AperFunction,ComponentPad*%
%ADD11O,0.900000X2.400000*%
%TD*%
%TA.AperFunction,ComponentPad*%
%ADD12O,0.900000X1.700000*%
%TD*%
%TA.AperFunction,ComponentPad*%
%ADD13R,1.700000X1.700000*%
%TD*%
%TA.AperFunction,ComponentPad*%
%ADD14O,1.700000X1.700000*%
%TD*%
%TA.AperFunction,ComponentPad*%
%ADD15RoundRect,0.250000X-0.550000X-0.550000X0.550000X-0.550000X0.550000X0.550000X-0.550000X0.550000X0*%
%TD*%
%TA.AperFunction,ComponentPad*%
%ADD16C,1.600000*%
%TD*%
%TA.AperFunction,ViaPad*%
%ADD17C,0.600000*%
%TD*%
%TA.AperFunction,Conductor*%
%ADD18C,0.250000*%
%TD*%
%TA.AperFunction,Conductor*%
%ADD19C,1.000000*%
%TD*%
%TA.AperFunction,Conductor*%
%ADD20C,0.500000*%
%TD*%
%TA.AperFunction,Conductor*%
%ADD21C,0.200000*%
%TD*%
G04 APERTURE END LIST*
D10*
%TO.P,J2,A1,GND*%
%TO.N,GND*%
X133125000Y-65185000D03*
%TO.P,J2,A4,VBUS*%
%TO.N,Net-(FB3-Pad1)*%
X132275000Y-65185000D03*
%TO.P,J2,A5,CC1*%
%TO.N,Net-(J2-CC1)*%
X131424999Y-65185000D03*
%TO.P,J2,A6,D+*%
%TO.N,D_P*%
X130575000Y-65185000D03*
%TO.P,J2,A7,D-*%
%TO.N,D_N*%
X129725000Y-65185000D03*
%TO.P,J2,A8,SBU1*%
%TO.N,unconnected-(J2-SBU1-PadA8)*%
X128875000Y-65185000D03*
%TO.P,J2,A9,VBUS*%
%TO.N,Net-(FB3-Pad1)*%
X128024999Y-65185000D03*
%TO.P,J2,A12,GND*%
%TO.N,GND*%
X127175000Y-65185000D03*
%TO.P,J2,B1,GND*%
X127175000Y-63835000D03*
%TO.P,J2,B4,VBUS*%
%TO.N,Net-(FB3-Pad1)*%
X128025000Y-63835000D03*
%TO.P,J2,B5,CC2*%
%TO.N,Net-(J2-CC2)*%
X128875000Y-63835000D03*
%TO.P,J2,B6,D+*%
%TO.N,D_P*%
X129725000Y-63835000D03*
%TO.P,J2,B7,D-*%
%TO.N,D_N*%
X130575000Y-63835000D03*
%TO.P,J2,B8,SBU2*%
%TO.N,unconnected-(J2-SBU2-PadB8)*%
X131425000Y-63835000D03*
%TO.P,J2,B9,VBUS*%
%TO.N,Net-(FB3-Pad1)*%
X132275000Y-63835000D03*
%TO.P,J2,B12,GND*%
%TO.N,GND*%
X133125000Y-63835000D03*
D11*
%TO.P,J2,S1,SHIELD*%
X134475000Y-64205000D03*
D12*
X134475000Y-60825000D03*
D11*
X125825000Y-64205000D03*
D12*
X125825000Y-60825000D03*
%TD*%
D13*
%TO.P,J3,1,Pin_1*%
%TO.N,NSS*%
X150779999Y-62675000D03*
D14*
%TO.P,J3,2,Pin_2*%
%TO.N,SCK*%
X148239999Y-62675000D03*
%TO.P,J3,3,Pin_3*%
%TO.N,MOSI*%
X145700000Y-62675000D03*
%TO.P,J3,4,Pin_4*%
%TO.N,MISO*%
X143159999Y-62675000D03*
%TD*%
D13*
%TO.P,J7,1,Pin_1*%
%TO.N,1Y*%
X166125000Y-80260000D03*
D14*
%TO.P,J7,2,Pin_2*%
%TO.N,2Y*%
X166125000Y-82800000D03*
%TO.P,J7,3,Pin_3*%
%TO.N,3Y*%
X166125000Y-85340000D03*
%TO.P,J7,4,Pin_4*%
%TO.N,4Y*%
X166125000Y-87880000D03*
%TD*%
D13*
%TO.P,J8,1,Pin_1*%
%TO.N,PB10*%
X158675000Y-62650000D03*
D14*
%TO.P,J8,2,Pin_2*%
%TO.N,PB11*%
X156135000Y-62650000D03*
%TD*%
D13*
%TO.P,J9,1,Pin_1*%
%TO.N,PC13*%
X125660000Y-106600000D03*
D14*
%TO.P,J9,2,Pin_2*%
%TO.N,PC14*%
X128200000Y-106600000D03*
%TO.P,J9,3,Pin_3*%
%TO.N,PC15*%
X130739999Y-106600000D03*
%TD*%
D13*
%TO.P,J5,1,Pin_1*%
%TO.N,SDA*%
X98000000Y-85400000D03*
D14*
%TO.P,J5,2,Pin_2*%
%TO.N,SCL*%
X98000000Y-82860000D03*
%TD*%
D13*
%TO.P,J6,1,Pin_1*%
%TO.N,5V*%
X156800000Y-106700000D03*
D14*
%TO.P,J6,2,Pin_2*%
%TO.N,GND*%
X154260000Y-106700000D03*
%TO.P,J6,3,Pin_3*%
X151720001Y-106700000D03*
%TO.P,J6,4,Pin_4*%
%TO.N,3.3V*%
X149180000Y-106700000D03*
%TD*%
D13*
%TO.P,J1,1,Pin_1*%
%TO.N,nRST*%
X116515000Y-64515000D03*
D14*
%TO.P,J1,2,Pin_2*%
%TO.N,SWDIO*%
X116515000Y-61975000D03*
%TO.P,J1,3,Pin_3*%
%TO.N,GND*%
X113975000Y-64515000D03*
%TO.P,J1,4,Pin_4*%
X113975000Y-61975000D03*
%TO.P,J1,5,Pin_5*%
%TO.N,unconnected-(J1-Pin_5-Pad5)*%
X111435000Y-64515000D03*
%TO.P,J1,6,Pin_6*%
%TO.N,SWCLK*%
X111435000Y-61975000D03*
%TO.P,J1,7,Pin_7*%
%TO.N,3.3V*%
X108895000Y-64515000D03*
%TO.P,J1,8,Pin_8*%
X108895000Y-61975000D03*
%TO.P,J1,9,Pin_9*%
%TO.N,5V*%
X106355000Y-64515000D03*
%TO.P,J1,10,Pin_10*%
X106355000Y-61975000D03*
%TD*%
D15*
%TO.P,U1,1,EN1\u002C2*%
%TO.N,EN1_2*%
X153500000Y-75200000D03*
D16*
%TO.P,U1,2,1A*%
%TO.N,1A*%
X153500000Y-77740000D03*
%TO.P,U1,3,1Y*%
%TO.N,1Y*%
X153500000Y-80279999D03*
%TO.P,U1,4,GND*%
%TO.N,GND*%
X153500000Y-82820000D03*
%TO.P,U1,5,GND*%
X153500000Y-85360000D03*
%TO.P,U1,6,2Y*%
%TO.N,2Y*%
X153500000Y-87900000D03*
%TO.P,U1,7,2A*%
%TO.N,2A*%
X153500000Y-90440000D03*
%TO.P,U1,8,VCC2*%
%TO.N,5V*%
X153500000Y-92980001D03*
%TO.P,U1,9,EN3\u002C4*%
%TO.N,EN3_4*%
X161120000Y-92980000D03*
%TO.P,U1,10,3A*%
%TO.N,3A*%
X161120000Y-90440000D03*
%TO.P,U1,11,3Y*%
%TO.N,3Y*%
X161120000Y-87900000D03*
%TO.P,U1,12,GND*%
%TO.N,GND*%
X161120000Y-85360000D03*
%TO.P,U1,13,GND*%
X161120000Y-82820000D03*
%TO.P,U1,14,4Y*%
%TO.N,4Y*%
X161120000Y-80280000D03*
%TO.P,U1,15,4A*%
%TO.N,4A*%
X161120000Y-77740000D03*
%TO.P,U1,16,VCC1*%
%TO.N,5V*%
X161120000Y-75200000D03*
%TD*%
D13*
%TO.P,J4,1,Pin_1*%
%TO.N,UART_TX*%
X139050000Y-106575000D03*
D14*
%TO.P,J4,2,Pin_2*%
%TO.N,UART_RX*%
X141590000Y-106575000D03*
%TD*%
D17*
%TO.N,3.3V*%
X122875000Y-74550000D03*
X108300000Y-69175000D03*
%TO.N,GND*%
X120525000Y-76200000D03*
X128650000Y-75525000D03*
X147300000Y-92675000D03*
X108325000Y-77300000D03*
X108300000Y-79900000D03*
X140825000Y-69025000D03*
X121050000Y-76750000D03*
X127325000Y-88625000D03*
X108450000Y-74650000D03*
X125575000Y-82225000D03*
X125625000Y-82925000D03*
X130225001Y-70075000D03*
X136525000Y-75875000D03*
X134400000Y-92950000D03*
X140550000Y-77950000D03*
X144350000Y-94525000D03*
X137825000Y-62375000D03*
X96925000Y-72500000D03*
X148150000Y-97300000D03*
X132675000Y-93025000D03*
X137450000Y-90350000D03*
X121725000Y-88525000D03*
X129625000Y-88125000D03*
X107400000Y-71275000D03*
X160875000Y-68250000D03*
X158775000Y-98925000D03*
X153237500Y-99100000D03*
X123475000Y-66800000D03*
X132475000Y-87225000D03*
X121875000Y-82450000D03*
%TO.N,5V*%
X130225001Y-72350000D03*
X126375000Y-73000000D03*
X119737500Y-71600000D03*
X134025000Y-72450000D03*
X156025000Y-97475000D03*
%TO.N,nRST*%
X131625000Y-87800000D03*
X104625000Y-74700000D03*
%TO.N,SWCLK*%
X115560000Y-70530000D03*
%TO.N,SWDIO*%
X122450000Y-75625000D03*
X129250000Y-74525000D03*
%TO.N,D_N*%
X131175000Y-70075000D03*
%TO.N,2Y*%
X163240000Y-83920000D03*
X157440000Y-83960000D03*
%TD*%
D18*
%TO.N,SWCLK*%
X110259000Y-63151000D02*
X110259000Y-65229000D01*
X111435000Y-61975000D02*
X110259000Y-63151000D01*
X110259000Y-65229000D02*
X115560000Y-70530000D01*
D19*
%TO.N,3.3V*%
X113749000Y-74624000D02*
X122801000Y-74624000D01*
X122801000Y-74624000D02*
X122875000Y-74550000D01*
X108300000Y-69175000D02*
X113749000Y-74624000D01*
D20*
%TO.N,GND*%
X133495000Y-65185000D02*
X134475000Y-64205000D01*
X126805000Y-65185000D02*
X125825000Y-64205000D01*
D19*
X134475000Y-62636000D02*
X133276000Y-63835000D01*
X134475000Y-60825000D02*
X134475000Y-62636000D01*
D20*
X127175000Y-65185000D02*
X126805000Y-65185000D01*
D19*
X161120000Y-82820000D02*
X161120000Y-85360000D01*
D20*
X134105000Y-63835000D02*
X134475000Y-64205000D01*
X133125000Y-65185000D02*
X133495000Y-65185000D01*
X127175000Y-63835000D02*
X127175000Y-65185000D01*
D19*
X125825000Y-62636000D02*
X127024000Y-63835000D01*
D20*
X133125000Y-63835000D02*
X134105000Y-63835000D01*
X133125000Y-63835000D02*
X133125000Y-65185000D01*
D19*
X125825000Y-60825000D02*
X125825000Y-62636000D01*
%TO.N,5V*%
X106355000Y-64515000D02*
X113440000Y-71600000D01*
X161120000Y-75200000D02*
X158770000Y-72850000D01*
X158770000Y-72850000D02*
X133625000Y-72850000D01*
X113440000Y-71600000D02*
X119737500Y-71600000D01*
X156800000Y-106700000D02*
X156800000Y-96280001D01*
X133625000Y-72850000D02*
X130725001Y-72850000D01*
X130725001Y-72850000D02*
X130225001Y-72350000D01*
X129575001Y-73000000D02*
X130225001Y-72350000D01*
X126375000Y-73000000D02*
X129575001Y-73000000D01*
X134025000Y-72450000D02*
X133625000Y-72850000D01*
X156800000Y-98250000D02*
X156025000Y-97475000D01*
X156800000Y-106700000D02*
X156800000Y-98250000D01*
X156800000Y-96280001D02*
X153500000Y-92980001D01*
D18*
%TO.N,nRST*%
X130400000Y-89825000D02*
X119750000Y-89825000D01*
X131625000Y-87800000D02*
X131625000Y-88600000D01*
X131625000Y-88600000D02*
X130400000Y-89825000D01*
X119750000Y-89825000D02*
X104625000Y-74700000D01*
%TO.N,Net-(FB3-Pad1)*%
X132093974Y-63143974D02*
X128206026Y-63143974D01*
X128206026Y-63143974D02*
X128025000Y-63325000D01*
X132275000Y-63819974D02*
X132275000Y-63325000D01*
X132275000Y-63325000D02*
X132093974Y-63143974D01*
X128025000Y-63325000D02*
X128025000Y-63819974D01*
%TO.N,SWDIO*%
X127150000Y-75625000D02*
X128250000Y-74525000D01*
X122450000Y-75625000D02*
X127150000Y-75625000D01*
X128250000Y-74525000D02*
X129250000Y-74525000D01*
D21*
%TO.N,D_N*%
X131175000Y-70075000D02*
X131175000Y-69425000D01*
X130575000Y-63940628D02*
X130575000Y-63869974D01*
X129725000Y-64790628D02*
X130575000Y-63940628D01*
X129725000Y-65169974D02*
X129725000Y-64790628D01*
X131175000Y-69425000D02*
X129725000Y-67975000D01*
X129725000Y-67975000D02*
X129725000Y-65185000D01*
D18*
%TO.N,3Y*%
X163565000Y-87900000D02*
X166105000Y-85360000D01*
X161120000Y-87900000D02*
X163565000Y-87900000D01*
%TO.N,2Y*%
X164925000Y-83920000D02*
X164965000Y-83960000D01*
X163240000Y-83920000D02*
X164925000Y-83920000D01*
X157440000Y-83960000D02*
X153500000Y-87900000D01*
X166105000Y-82820000D02*
X164965000Y-83960000D01*
%TD*%
%TA.AperFunction,Conductor*%
%TO.N,GND*%
G36*
X153794075Y-106507007D02*
G01*
X153760000Y-106634174D01*
X153760000Y-106765826D01*
X153794075Y-106892993D01*
X153826988Y-106950000D01*
X152153013Y-106950000D01*
X152185926Y-106892993D01*
X152220001Y-106765826D01*
X152220001Y-106634174D01*
X152185926Y-106507007D01*
X152153013Y-106450000D01*
X153826988Y-106450000D01*
X153794075Y-106507007D01*
G37*
%TD.AperFunction*%
%TA.AperFunction,Conductor*%
G36*
X114225000Y-64081988D02*
G01*
X114167993Y-64049075D01*
X114040826Y-64015000D01*
X113909174Y-64015000D01*
X113782007Y-64049075D01*
X113725000Y-64081988D01*
X113725000Y-62408012D01*
X113782007Y-62440925D01*
X113909174Y-62475000D01*
X114040826Y-62475000D01*
X114167993Y-62440925D01*
X114225000Y-62408012D01*
X114225000Y-64081988D01*
G37*
%TD.AperFunction*%
%TA.AperFunction,Conductor*%
G36*
X125098673Y-59595185D02*
G01*
X125144428Y-59647989D01*
X125154372Y-59717147D01*
X125125347Y-59780703D01*
X125119315Y-59787181D01*
X125087089Y-59819406D01*
X125087086Y-59819410D01*
X124983124Y-59974999D01*
X124983119Y-59975008D01*
X124911508Y-60147894D01*
X124911506Y-60147902D01*
X124875000Y-60331428D01*
X124875000Y-60575000D01*
X125525000Y-60575000D01*
X125525000Y-61075000D01*
X124875000Y-61075000D01*
X124875000Y-61318571D01*
X124911506Y-61502097D01*
X124911508Y-61502105D01*
X124983119Y-61674991D01*
X124983124Y-61675000D01*
X125087086Y-61830589D01*
X125087089Y-61830593D01*
X125219406Y-61962910D01*
X125219410Y-61962913D01*
X125374999Y-62066875D01*
X125375012Y-62066882D01*
X125547889Y-62138489D01*
X125547896Y-62138491D01*
X125575000Y-62143882D01*
X125575000Y-61391988D01*
X125584940Y-61409205D01*
X125640795Y-61465060D01*
X125709204Y-61504556D01*
X125785504Y-61525000D01*
X125864496Y-61525000D01*
X125940796Y-61504556D01*
X126009205Y-61465060D01*
X126065060Y-61409205D01*
X126075000Y-61391988D01*
X126075000Y-62143881D01*
X126102103Y-62138491D01*
X126102110Y-62138489D01*
X126274987Y-62066882D01*
X126275000Y-62066875D01*
X126430589Y-61962913D01*
X126430593Y-61962910D01*
X126562910Y-61830593D01*
X126562913Y-61830589D01*
X126666875Y-61675000D01*
X126666880Y-61674991D01*
X126738491Y-61502105D01*
X126738493Y-61502097D01*
X126774999Y-61318571D01*
X126775000Y-61318569D01*
X126775000Y-61075000D01*
X126125000Y-61075000D01*
X126125000Y-60575000D01*
X126775000Y-60575000D01*
X126775000Y-60331430D01*
X126774999Y-60331428D01*
X126738493Y-60147902D01*
X126738491Y-60147894D01*
X126666880Y-59975008D01*
X126666875Y-59974999D01*
X126562913Y-59819410D01*
X126562910Y-59819406D01*
X126530685Y-59787181D01*
X126497200Y-59725858D01*
X126502184Y-59656166D01*
X126544056Y-59600233D01*
X126609520Y-59575816D01*
X126618366Y-59575500D01*
X133681634Y-59575500D01*
X133748673Y-59595185D01*
X133794428Y-59647989D01*
X133804372Y-59717147D01*
X133775347Y-59780703D01*
X133769315Y-59787181D01*
X133737089Y-59819406D01*
X133737086Y-59819410D01*
X133633124Y-59974999D01*
X133633119Y-59975008D01*
X133561508Y-60147894D01*
X133561506Y-60147902D01*
X133525000Y-60331428D01*
X133525000Y-60575000D01*
X134175000Y-60575000D01*
X134175000Y-61075000D01*
X133525000Y-61075000D01*
X133525000Y-61318571D01*
X133561506Y-61502097D01*
X133561508Y-61502105D01*
X133633119Y-61674991D01*
X133633124Y-61675000D01*
X133737086Y-61830589D01*
X133737089Y-61830593D01*
X133869406Y-61962910D01*
X133869410Y-61962913D01*
X134024999Y-62066875D01*
X134025012Y-62066882D01*
X134197889Y-62138489D01*
X134197896Y-62138491D01*
X134225000Y-62143882D01*
X134225000Y-61391988D01*
X134234940Y-61409205D01*
X134290795Y-61465060D01*
X134359204Y-61504556D01*
X134435504Y-61525000D01*
X134514496Y-61525000D01*
X134590796Y-61504556D01*
X134659205Y-61465060D01*
X134715060Y-61409205D01*
X134725000Y-61391988D01*
X134725000Y-62143881D01*
X134752103Y-62138491D01*
X134752110Y-62138489D01*
X134924987Y-62066882D01*
X134925000Y-62066875D01*
X135080589Y-61962913D01*
X135080593Y-61962910D01*
X135212910Y-61830593D01*
X135212913Y-61830589D01*
X135316875Y-61675000D01*
X135316880Y-61674991D01*
X135388491Y-61502105D01*
X135388493Y-61502097D01*
X135424999Y-61318571D01*
X135425000Y-61318569D01*
X135425000Y-61075000D01*
X134775000Y-61075000D01*
X134775000Y-60575000D01*
X135425000Y-60575000D01*
X135425000Y-60331430D01*
X135424999Y-60331428D01*
X135388493Y-60147902D01*
X135388491Y-60147894D01*
X135316880Y-59975008D01*
X135316875Y-59974999D01*
X135212913Y-59819410D01*
X135212910Y-59819406D01*
X135180685Y-59787181D01*
X135147200Y-59725858D01*
X135152184Y-59656166D01*
X135194056Y-59600233D01*
X135259520Y-59575816D01*
X135268366Y-59575500D01*
X169325500Y-59575500D01*
X169392539Y-59595185D01*
X169438294Y-59647989D01*
X169449500Y-59699500D01*
X169449500Y-108450500D01*
X169429815Y-108517539D01*
X169377011Y-108563294D01*
X169325500Y-108574500D01*
X95574500Y-108574500D01*
X95507461Y-108554815D01*
X95461706Y-108502011D01*
X95450500Y-108450500D01*
X95450500Y-104953711D01*
X97099500Y-104953711D01*
X97099500Y-105196288D01*
X97127135Y-105406206D01*
X97131162Y-105436789D01*
X97133349Y-105444951D01*
X97193947Y-105671104D01*
X97240688Y-105783946D01*
X97286776Y-105895212D01*
X97408064Y-106105289D01*
X97408066Y-106105292D01*
X97408067Y-106105293D01*
X97555733Y-106297736D01*
X97555739Y-106297743D01*
X97727256Y-106469260D01*
X97727262Y-106469265D01*
X97919711Y-106616936D01*
X98129788Y-106738224D01*
X98353900Y-106831054D01*
X98588211Y-106893838D01*
X98758397Y-106916243D01*
X98828711Y-106925500D01*
X98828712Y-106925500D01*
X99071289Y-106925500D01*
X99141603Y-106916243D01*
X99311789Y-106893838D01*
X99546100Y-106831054D01*
X99770212Y-106738224D01*
X99980289Y-106616936D01*
X100172738Y-106469265D01*
X100344265Y-106297738D01*
X100491936Y-106105289D01*
X100613224Y-105895212D01*
X100693199Y-105702135D01*
X124309500Y-105702135D01*
X124309500Y-107497870D01*
X124309501Y-107497876D01*
X124315908Y-107557483D01*
X124366202Y-107692328D01*
X124366206Y-107692335D01*
X124452452Y-107807544D01*
X124452455Y-107807547D01*
X124567664Y-107893793D01*
X124567671Y-107893797D01*
X124702517Y-107944091D01*
X124702516Y-107944091D01*
X124709444Y-107944835D01*
X124762127Y-107950500D01*
X126557872Y-107950499D01*
X126617483Y-107944091D01*
X126752331Y-107893796D01*
X126867546Y-107807546D01*
X126953796Y-107692331D01*
X127002810Y-107560916D01*
X127044681Y-107504984D01*
X127110145Y-107480566D01*
X127178418Y-107495417D01*
X127206673Y-107516569D01*
X127320213Y-107630109D01*
X127492179Y-107755048D01*
X127492181Y-107755049D01*
X127492184Y-107755051D01*
X127681588Y-107851557D01*
X127883757Y-107917246D01*
X128093713Y-107950500D01*
X128093714Y-107950500D01*
X128306286Y-107950500D01*
X128306287Y-107950500D01*
X128516243Y-107917246D01*
X128718412Y-107851557D01*
X128907816Y-107755051D01*
X128994138Y-107692335D01*
X129079786Y-107630109D01*
X129079788Y-107630106D01*
X129079792Y-107630104D01*
X129230104Y-107479792D01*
X129230106Y-107479788D01*
X129230109Y-107479786D01*
X129355048Y-107307820D01*
X129355050Y-107307817D01*
X129355051Y-107307816D01*
X129359512Y-107299058D01*
X129407483Y-107248262D01*
X129475303Y-107231464D01*
X129541440Y-107253998D01*
X129580483Y-107299054D01*
X129584948Y-107307817D01*
X129709889Y-107479786D01*
X129860212Y-107630109D01*
X130032178Y-107755048D01*
X130032180Y-107755049D01*
X130032183Y-107755051D01*
X130221587Y-107851557D01*
X130423756Y-107917246D01*
X130633712Y-107950500D01*
X130633713Y-107950500D01*
X130846285Y-107950500D01*
X130846286Y-107950500D01*
X131056242Y-107917246D01*
X131258411Y-107851557D01*
X131447815Y-107755051D01*
X131534137Y-107692335D01*
X131619785Y-107630109D01*
X131619787Y-107630106D01*
X131619791Y-107630104D01*
X131770103Y-107479792D01*
X131770105Y-107479788D01*
X131770108Y-107479786D01*
X131895047Y-107307820D01*
X131895049Y-107307817D01*
X131895050Y-107307816D01*
X131991556Y-107118412D01*
X132057245Y-106916243D01*
X132090499Y-106706287D01*
X132090499Y-106493713D01*
X132057245Y-106283757D01*
X131991556Y-106081588D01*
X131895050Y-105892184D01*
X131895048Y-105892181D01*
X131895047Y-105892179D01*
X131789345Y-105746691D01*
X131770108Y-105720214D01*
X131770104Y-105720209D01*
X131727030Y-105677135D01*
X137699500Y-105677135D01*
X137699500Y-107472870D01*
X137699501Y-107472876D01*
X137705908Y-107532483D01*
X137756202Y-107667328D01*
X137756206Y-107667335D01*
X137842452Y-107782544D01*
X137842455Y-107782547D01*
X137957664Y-107868793D01*
X137957671Y-107868797D01*
X138092517Y-107919091D01*
X138092516Y-107919091D01*
X138099444Y-107919835D01*
X138152127Y-107925500D01*
X139947872Y-107925499D01*
X140007483Y-107919091D01*
X140142331Y-107868796D01*
X140257546Y-107782546D01*
X140343796Y-107667331D01*
X140392810Y-107535916D01*
X140434681Y-107479984D01*
X140500145Y-107455566D01*
X140568418Y-107470417D01*
X140596673Y-107491569D01*
X140710213Y-107605109D01*
X140882179Y-107730048D01*
X140882181Y-107730049D01*
X140882184Y-107730051D01*
X141071588Y-107826557D01*
X141273757Y-107892246D01*
X141483713Y-107925500D01*
X141483714Y-107925500D01*
X141696286Y-107925500D01*
X141696287Y-107925500D01*
X141906243Y-107892246D01*
X142108412Y-107826557D01*
X142297816Y-107730051D01*
X142349728Y-107692335D01*
X142469786Y-107605109D01*
X142469788Y-107605106D01*
X142469792Y-107605104D01*
X142620104Y-107454792D01*
X142620106Y-107454788D01*
X142620109Y-107454786D01*
X142745048Y-107282820D01*
X142745047Y-107282820D01*
X142745051Y-107282816D01*
X142841557Y-107093412D01*
X142907246Y-106891243D01*
X142940500Y-106681287D01*
X142940500Y-106468713D01*
X142907246Y-106258757D01*
X142841557Y-106056588D01*
X142745051Y-105867184D01*
X142745049Y-105867181D01*
X142745048Y-105867179D01*
X142620109Y-105695213D01*
X142469786Y-105544890D01*
X142297820Y-105419951D01*
X142108414Y-105323444D01*
X142108413Y-105323443D01*
X142108412Y-105323443D01*
X141906243Y-105257754D01*
X141906241Y-105257753D01*
X141906240Y-105257753D01*
X141744957Y-105232208D01*
X141696287Y-105224500D01*
X141483713Y-105224500D01*
X141435042Y-105232208D01*
X141273760Y-105257753D01*
X141071585Y-105323444D01*
X140882179Y-105419951D01*
X140710215Y-105544889D01*
X140596673Y-105658431D01*
X140535350Y-105691915D01*
X140465658Y-105686931D01*
X140409725Y-105645059D01*
X140392810Y-105614082D01*
X140343797Y-105482671D01*
X140343793Y-105482664D01*
X140257547Y-105367455D01*
X140257544Y-105367452D01*
X140142335Y-105281206D01*
X140142328Y-105281202D01*
X140007482Y-105230908D01*
X140007483Y-105230908D01*
X139947883Y-105224501D01*
X139947881Y-105224500D01*
X139947873Y-105224500D01*
X139947864Y-105224500D01*
X138152129Y-105224500D01*
X138152123Y-105224501D01*
X138092516Y-105230908D01*
X137957671Y-105281202D01*
X137957664Y-105281206D01*
X137842455Y-105367452D01*
X137842452Y-105367455D01*
X137756206Y-105482664D01*
X137756202Y-105482671D01*
X137705908Y-105617517D01*
X137699501Y-105677116D01*
X137699500Y-105677135D01*
X131727030Y-105677135D01*
X131619785Y-105569890D01*
X131447819Y-105444951D01*
X131258413Y-105348444D01*
X131258412Y-105348443D01*
X131258411Y-105348443D01*
X131056242Y-105282754D01*
X131056240Y-105282753D01*
X131056239Y-105282753D01*
X130894956Y-105257208D01*
X130846286Y-105249500D01*
X130633712Y-105249500D01*
X130585041Y-105257208D01*
X130423759Y-105282753D01*
X130221584Y-105348444D01*
X130032178Y-105444951D01*
X129860212Y-105569890D01*
X129709889Y-105720213D01*
X129584947Y-105892183D01*
X129580481Y-105900949D01*
X129532505Y-105951742D01*
X129464683Y-105968535D01*
X129398549Y-105945995D01*
X129359513Y-105900942D01*
X129355051Y-105892184D01*
X129355049Y-105892181D01*
X129355048Y-105892179D01*
X129230109Y-105720213D01*
X129079786Y-105569890D01*
X128907820Y-105444951D01*
X128718414Y-105348444D01*
X128718413Y-105348443D01*
X128718412Y-105348443D01*
X128516243Y-105282754D01*
X128516241Y-105282753D01*
X128516240Y-105282753D01*
X128354957Y-105257208D01*
X128306287Y-105249500D01*
X128093713Y-105249500D01*
X128045042Y-105257208D01*
X127883760Y-105282753D01*
X127681585Y-105348444D01*
X127492179Y-105444951D01*
X127320215Y-105569889D01*
X127206673Y-105683431D01*
X127145350Y-105716915D01*
X127075658Y-105711931D01*
X127019725Y-105670059D01*
X127002810Y-105639082D01*
X126953797Y-105507671D01*
X126953793Y-105507664D01*
X126867547Y-105392455D01*
X126867544Y-105392452D01*
X126752335Y-105306206D01*
X126752328Y-105306202D01*
X126617482Y-105255908D01*
X126617483Y-105255908D01*
X126557883Y-105249501D01*
X126557881Y-105249500D01*
X126557873Y-105249500D01*
X126557864Y-105249500D01*
X124762129Y-105249500D01*
X124762123Y-105249501D01*
X124702516Y-105255908D01*
X124567671Y-105306202D01*
X124567664Y-105306206D01*
X124452455Y-105392452D01*
X124452452Y-105392455D01*
X124366206Y-105507664D01*
X124366202Y-105507671D01*
X124315908Y-105642517D01*
X124309501Y-105702116D01*
X124309500Y-105702135D01*
X100693199Y-105702135D01*
X100706054Y-105671100D01*
X100768838Y-105436789D01*
X100800500Y-105196288D01*
X100800500Y-104953712D01*
X100768838Y-104713211D01*
X100706054Y-104478900D01*
X100613224Y-104254788D01*
X100491936Y-104044711D01*
X100344265Y-103852262D01*
X100344260Y-103852256D01*
X100172743Y-103680739D01*
X100172736Y-103680733D01*
X99980293Y-103533067D01*
X99980292Y-103533066D01*
X99980289Y-103533064D01*
X99770212Y-103411776D01*
X99770205Y-103411773D01*
X99546104Y-103318947D01*
X99311785Y-103256161D01*
X99071289Y-103224500D01*
X99071288Y-103224500D01*
X98828712Y-103224500D01*
X98828711Y-103224500D01*
X98588214Y-103256161D01*
X98353895Y-103318947D01*
X98129794Y-103411773D01*
X98129785Y-103411777D01*
X97919706Y-103533067D01*
X97727263Y-103680733D01*
X97727256Y-103680739D01*
X97555739Y-103852256D01*
X97555733Y-103852263D01*
X97408067Y-104044706D01*
X97286777Y-104254785D01*
X97286773Y-104254794D01*
X97193947Y-104478895D01*
X97131161Y-104713214D01*
X97099500Y-104953711D01*
X95450500Y-104953711D01*
X95450500Y-82753713D01*
X96649500Y-82753713D01*
X96649500Y-82966286D01*
X96674545Y-83124417D01*
X96682754Y-83176243D01*
X96735381Y-83338213D01*
X96748444Y-83378414D01*
X96844951Y-83567820D01*
X96969890Y-83739786D01*
X97083430Y-83853326D01*
X97116915Y-83914649D01*
X97111931Y-83984341D01*
X97070059Y-84040274D01*
X97039083Y-84057189D01*
X96907669Y-84106203D01*
X96907664Y-84106206D01*
X96792455Y-84192452D01*
X96792452Y-84192455D01*
X96706206Y-84307664D01*
X96706202Y-84307671D01*
X96655908Y-84442517D01*
X96649501Y-84502116D01*
X96649501Y-84502123D01*
X96649500Y-84502135D01*
X96649500Y-86297870D01*
X96649501Y-86297876D01*
X96655908Y-86357483D01*
X96706202Y-86492328D01*
X96706206Y-86492335D01*
X96792452Y-86607544D01*
X96792455Y-86607547D01*
X96907664Y-86693793D01*
X96907671Y-86693797D01*
X97042517Y-86744091D01*
X97042516Y-86744091D01*
X97049444Y-86744835D01*
X97102127Y-86750500D01*
X98897872Y-86750499D01*
X98957483Y-86744091D01*
X99092331Y-86693796D01*
X99207546Y-86607546D01*
X99293796Y-86492331D01*
X99344091Y-86357483D01*
X99350500Y-86297873D01*
X99350499Y-84502128D01*
X99344091Y-84442517D01*
X99339531Y-84430292D01*
X99293797Y-84307671D01*
X99293793Y-84307664D01*
X99207547Y-84192455D01*
X99207544Y-84192452D01*
X99092335Y-84106206D01*
X99092328Y-84106202D01*
X98960917Y-84057189D01*
X98904983Y-84015318D01*
X98880566Y-83949853D01*
X98895418Y-83881580D01*
X98916563Y-83853332D01*
X99030104Y-83739792D01*
X99068821Y-83686503D01*
X99155048Y-83567820D01*
X99155047Y-83567820D01*
X99155051Y-83567816D01*
X99251557Y-83378412D01*
X99317246Y-83176243D01*
X99350500Y-82966287D01*
X99350500Y-82753713D01*
X99317246Y-82543757D01*
X99251557Y-82341588D01*
X99155051Y-82152184D01*
X99155049Y-82152181D01*
X99155048Y-82152179D01*
X99030109Y-81980213D01*
X98879786Y-81829890D01*
X98707820Y-81704951D01*
X98518414Y-81608444D01*
X98518413Y-81608443D01*
X98518412Y-81608443D01*
X98316243Y-81542754D01*
X98316241Y-81542753D01*
X98316240Y-81542753D01*
X98154957Y-81517208D01*
X98106287Y-81509500D01*
X97893713Y-81509500D01*
X97845042Y-81517208D01*
X97683760Y-81542753D01*
X97481585Y-81608444D01*
X97292179Y-81704951D01*
X97120213Y-81829890D01*
X96969890Y-81980213D01*
X96844951Y-82152179D01*
X96748444Y-82341585D01*
X96682753Y-82543760D01*
X96649500Y-82753713D01*
X95450500Y-82753713D01*
X95450500Y-74621153D01*
X103824500Y-74621153D01*
X103824500Y-74778846D01*
X103855261Y-74933489D01*
X103855264Y-74933501D01*
X103915602Y-75079172D01*
X103915609Y-75079185D01*
X104003210Y-75210288D01*
X104003213Y-75210292D01*
X104114707Y-75321786D01*
X104114711Y-75321789D01*
X104245814Y-75409390D01*
X104245827Y-75409397D01*
X104333230Y-75445599D01*
X104391503Y-75469737D01*
X104502716Y-75491858D01*
X104564623Y-75524241D01*
X104566203Y-75525793D01*
X119264139Y-90223729D01*
X119264142Y-90223733D01*
X119351267Y-90310858D01*
X119391361Y-90337648D01*
X119453714Y-90379312D01*
X119453719Y-90379314D01*
X119527390Y-90409829D01*
X119527394Y-90409830D01*
X119534207Y-90412652D01*
X119567548Y-90426463D01*
X119627971Y-90438481D01*
X119688393Y-90450500D01*
X130461607Y-90450500D01*
X130522029Y-90438481D01*
X130582452Y-90426463D01*
X130615792Y-90412652D01*
X130696286Y-90379312D01*
X130758639Y-90337648D01*
X130798733Y-90310858D01*
X130885858Y-90223733D01*
X130885858Y-90223731D01*
X130896066Y-90213524D01*
X130896067Y-90213521D01*
X132110858Y-88998733D01*
X132179312Y-88896285D01*
X132226463Y-88782451D01*
X132250501Y-88661606D01*
X132250501Y-88538393D01*
X132250501Y-88533283D01*
X132250500Y-88533257D01*
X132250500Y-88342350D01*
X132270185Y-88275311D01*
X132271398Y-88273459D01*
X132322992Y-88196243D01*
X132334394Y-88179179D01*
X132394737Y-88033497D01*
X132425500Y-87878842D01*
X132425500Y-87721158D01*
X132425500Y-87721155D01*
X132425499Y-87721153D01*
X132394738Y-87566510D01*
X132394737Y-87566503D01*
X132391756Y-87559306D01*
X132334397Y-87420827D01*
X132334390Y-87420814D01*
X132246789Y-87289711D01*
X132246786Y-87289707D01*
X132135292Y-87178213D01*
X132135288Y-87178210D01*
X132004185Y-87090609D01*
X132004172Y-87090602D01*
X131858501Y-87030264D01*
X131858489Y-87030261D01*
X131703845Y-86999500D01*
X131703842Y-86999500D01*
X131546158Y-86999500D01*
X131546155Y-86999500D01*
X131391510Y-87030261D01*
X131391498Y-87030264D01*
X131245827Y-87090602D01*
X131245814Y-87090609D01*
X131114711Y-87178210D01*
X131114707Y-87178213D01*
X131003213Y-87289707D01*
X131003210Y-87289711D01*
X130915609Y-87420814D01*
X130915602Y-87420827D01*
X130855264Y-87566498D01*
X130855261Y-87566510D01*
X130824500Y-87721153D01*
X130824500Y-87878846D01*
X130855261Y-88033489D01*
X130855264Y-88033501D01*
X130915602Y-88179172D01*
X130915612Y-88179190D01*
X130957451Y-88241807D01*
X130978329Y-88308484D01*
X130959844Y-88375864D01*
X130942030Y-88398378D01*
X130177229Y-89163181D01*
X130115906Y-89196666D01*
X130089548Y-89199500D01*
X120060452Y-89199500D01*
X119993413Y-89179815D01*
X119972771Y-89163181D01*
X105450793Y-74641203D01*
X105417308Y-74579880D01*
X105416887Y-74577864D01*
X105394737Y-74466503D01*
X105370599Y-74408230D01*
X105334397Y-74320827D01*
X105334390Y-74320814D01*
X105246789Y-74189711D01*
X105246786Y-74189707D01*
X105135292Y-74078213D01*
X105135288Y-74078210D01*
X105004185Y-73990609D01*
X105004172Y-73990602D01*
X104858501Y-73930264D01*
X104858489Y-73930261D01*
X104703845Y-73899500D01*
X104703842Y-73899500D01*
X104546158Y-73899500D01*
X104546155Y-73899500D01*
X104391510Y-73930261D01*
X104391498Y-73930264D01*
X104245827Y-73990602D01*
X104245814Y-73990609D01*
X104114711Y-74078210D01*
X104114707Y-74078213D01*
X104003213Y-74189707D01*
X104003210Y-74189711D01*
X103915609Y-74320814D01*
X103915602Y-74320827D01*
X103855264Y-74466498D01*
X103855261Y-74466510D01*
X103824500Y-74621153D01*
X95450500Y-74621153D01*
X95450500Y-62953711D01*
X97099500Y-62953711D01*
X97099500Y-63196288D01*
X97131161Y-63436785D01*
X97193947Y-63671104D01*
X97281530Y-63882547D01*
X97286776Y-63895212D01*
X97408064Y-64105289D01*
X97408066Y-64105292D01*
X97408067Y-64105293D01*
X97555733Y-64297736D01*
X97555739Y-64297743D01*
X97727256Y-64469260D01*
X97727263Y-64469266D01*
X97769179Y-64501429D01*
X97919711Y-64616936D01*
X98129788Y-64738224D01*
X98353900Y-64831054D01*
X98588211Y-64893838D01*
X98749707Y-64915099D01*
X98828711Y-64925500D01*
X98828712Y-64925500D01*
X99071289Y-64925500D01*
X99119388Y-64919167D01*
X99311789Y-64893838D01*
X99546100Y-64831054D01*
X99770212Y-64738224D01*
X99980289Y-64616936D01*
X100172738Y-64469265D01*
X100344265Y-64297738D01*
X100491936Y-64105289D01*
X100613224Y-63895212D01*
X100706054Y-63671100D01*
X100768838Y-63436789D01*
X100800500Y-63196288D01*
X100800500Y-62953712D01*
X100768838Y-62713211D01*
X100706054Y-62478900D01*
X100613224Y-62254788D01*
X100491936Y-62044711D01*
X100439174Y-61975950D01*
X100411073Y-61939327D01*
X100356889Y-61868713D01*
X105004500Y-61868713D01*
X105004500Y-62081287D01*
X105012467Y-62131588D01*
X105037753Y-62291239D01*
X105103444Y-62493414D01*
X105199951Y-62682820D01*
X105324890Y-62854786D01*
X105475213Y-63005109D01*
X105647182Y-63130050D01*
X105655946Y-63134516D01*
X105706742Y-63182491D01*
X105723536Y-63250312D01*
X105700998Y-63316447D01*
X105655946Y-63355484D01*
X105647182Y-63359949D01*
X105475213Y-63484890D01*
X105324890Y-63635213D01*
X105199951Y-63807179D01*
X105103444Y-63996585D01*
X105037753Y-64198760D01*
X105004500Y-64408713D01*
X105004500Y-64621286D01*
X105037723Y-64831052D01*
X105037754Y-64831243D01*
X105090798Y-64994496D01*
X105103444Y-65033414D01*
X105199951Y-65222820D01*
X105324890Y-65394786D01*
X105475213Y-65545109D01*
X105647179Y-65670048D01*
X105647181Y-65670049D01*
X105647184Y-65670051D01*
X105836588Y-65766557D01*
X106038757Y-65832246D01*
X106248713Y-65865500D01*
X106248714Y-65865500D01*
X106253525Y-65866262D01*
X106253357Y-65867321D01*
X106313829Y-65890362D01*
X106326503Y-65901423D01*
X108387899Y-67962819D01*
X108421384Y-68024142D01*
X108416400Y-68093834D01*
X108374528Y-68149767D01*
X108309064Y-68174184D01*
X108300218Y-68174500D01*
X108201457Y-68174500D01*
X108008171Y-68212947D01*
X108008163Y-68212949D01*
X107826089Y-68288367D01*
X107826079Y-68288372D01*
X107662219Y-68397860D01*
X107662215Y-68397863D01*
X107522863Y-68537215D01*
X107522860Y-68537219D01*
X107413372Y-68701079D01*
X107413367Y-68701089D01*
X107337949Y-68883163D01*
X107337947Y-68883171D01*
X107299500Y-69076455D01*
X107299500Y-69273544D01*
X107337947Y-69466828D01*
X107337949Y-69466836D01*
X107413367Y-69648910D01*
X107413372Y-69648920D01*
X107522860Y-69812780D01*
X107522863Y-69812784D01*
X113111215Y-75401137D01*
X113111219Y-75401140D01*
X113275079Y-75510628D01*
X113275088Y-75510633D01*
X113366125Y-75548342D01*
X113457165Y-75586052D01*
X113618389Y-75618121D01*
X113650457Y-75624499D01*
X113650458Y-75624500D01*
X113650459Y-75624500D01*
X113650460Y-75624500D01*
X113847540Y-75624500D01*
X121531954Y-75624500D01*
X121598993Y-75644185D01*
X121644748Y-75696989D01*
X121653571Y-75724309D01*
X121680261Y-75858489D01*
X121680264Y-75858501D01*
X121740602Y-76004172D01*
X121740609Y-76004185D01*
X121828210Y-76135288D01*
X121828213Y-76135292D01*
X121939707Y-76246786D01*
X121939711Y-76246789D01*
X122070814Y-76334390D01*
X122070827Y-76334397D01*
X122216498Y-76394735D01*
X122216503Y-76394737D01*
X122371153Y-76425499D01*
X122371156Y-76425500D01*
X122371158Y-76425500D01*
X122528844Y-76425500D01*
X122528845Y-76425499D01*
X122683497Y-76394737D01*
X122796166Y-76348067D01*
X122829172Y-76334397D01*
X122829172Y-76334396D01*
X122829179Y-76334394D01*
X122923459Y-76271398D01*
X122990136Y-76250520D01*
X122992350Y-76250500D01*
X127211607Y-76250500D01*
X127272029Y-76238481D01*
X127332452Y-76226463D01*
X127365792Y-76212652D01*
X127446286Y-76179312D01*
X127512169Y-76135289D01*
X127548733Y-76110858D01*
X127635858Y-76023733D01*
X127635859Y-76023731D01*
X127642925Y-76016665D01*
X127642927Y-76016661D01*
X128472771Y-75186819D01*
X128499698Y-75172115D01*
X128525517Y-75155523D01*
X128531717Y-75154631D01*
X128534094Y-75153334D01*
X128560452Y-75150500D01*
X128707650Y-75150500D01*
X128774689Y-75170185D01*
X128776541Y-75171398D01*
X128870821Y-75234394D01*
X128870823Y-75234395D01*
X128870827Y-75234397D01*
X129016498Y-75294735D01*
X129016503Y-75294737D01*
X129152487Y-75321786D01*
X129171153Y-75325499D01*
X129171156Y-75325500D01*
X129171158Y-75325500D01*
X129328844Y-75325500D01*
X129328845Y-75325499D01*
X129483497Y-75294737D01*
X129629179Y-75234394D01*
X129760289Y-75146789D01*
X129871789Y-75035289D01*
X129959394Y-74904179D01*
X129963004Y-74895465D01*
X130019735Y-74758501D01*
X130019737Y-74758497D01*
X130050500Y-74603842D01*
X130050500Y-74446158D01*
X130050500Y-74446155D01*
X130050499Y-74446153D01*
X130025570Y-74320827D01*
X130019737Y-74291503D01*
X129986881Y-74212181D01*
X129959397Y-74145827D01*
X129959390Y-74145814D01*
X129927100Y-74097489D01*
X129906222Y-74030812D01*
X129924706Y-73963432D01*
X129976685Y-73916741D01*
X129982696Y-73914060D01*
X130048915Y-73886632D01*
X130209755Y-73779161D01*
X130211836Y-73778510D01*
X130213291Y-73776885D01*
X130245023Y-73768118D01*
X130276433Y-73758284D01*
X130279195Y-73758678D01*
X130280639Y-73758280D01*
X130290030Y-73760226D01*
X130315488Y-73763864D01*
X130320886Y-73765543D01*
X130379835Y-73789961D01*
X130433165Y-73812051D01*
X130529813Y-73831275D01*
X130612318Y-73847686D01*
X130626459Y-73850500D01*
X130626460Y-73850500D01*
X130626461Y-73850500D01*
X130823541Y-73850500D01*
X133526459Y-73850500D01*
X133526460Y-73850500D01*
X133723540Y-73850500D01*
X152388770Y-73850500D01*
X152455809Y-73870185D01*
X152501564Y-73922989D01*
X152511508Y-73992147D01*
X152482483Y-74055703D01*
X152476451Y-74062181D01*
X152357289Y-74181342D01*
X152265187Y-74330663D01*
X152265186Y-74330666D01*
X152210001Y-74497203D01*
X152210001Y-74497204D01*
X152210000Y-74497204D01*
X152199500Y-74599983D01*
X152199500Y-75800001D01*
X152199501Y-75800018D01*
X152210000Y-75902796D01*
X152210001Y-75902799D01*
X152247733Y-76016665D01*
X152265186Y-76069334D01*
X152357288Y-76218656D01*
X152481344Y-76342712D01*
X152630666Y-76434814D01*
X152712570Y-76461954D01*
X152770015Y-76501727D01*
X152796838Y-76566243D01*
X152784523Y-76635018D01*
X152746451Y-76679978D01*
X152652787Y-76748028D01*
X152652782Y-76748032D01*
X152508028Y-76892786D01*
X152387715Y-77058386D01*
X152294781Y-77240776D01*
X152231522Y-77435465D01*
X152199500Y-77637648D01*
X152199500Y-77842351D01*
X152231522Y-78044534D01*
X152294781Y-78239223D01*
X152387715Y-78421613D01*
X152508028Y-78587213D01*
X152652786Y-78731971D01*
X152818385Y-78852284D01*
X152818387Y-78852285D01*
X152818390Y-78852287D01*
X152911080Y-78899515D01*
X152961875Y-78947488D01*
X152978670Y-79015309D01*
X152956133Y-79081444D01*
X152911079Y-79120483D01*
X152818391Y-79167710D01*
X152818389Y-79167711D01*
X152652786Y-79288027D01*
X152508028Y-79432785D01*
X152387715Y-79598385D01*
X152294781Y-79780775D01*
X152231522Y-79975464D01*
X152199500Y-80177647D01*
X152199500Y-80382350D01*
X152231522Y-80584533D01*
X152294781Y-80779222D01*
X152387715Y-80961612D01*
X152508028Y-81127212D01*
X152652786Y-81271970D01*
X152818388Y-81392285D01*
X152911630Y-81439794D01*
X152962427Y-81487768D01*
X152979222Y-81555589D01*
X152956685Y-81621724D01*
X152911632Y-81660763D01*
X152818648Y-81708141D01*
X152818645Y-81708143D01*
X152774077Y-81740523D01*
X152774077Y-81740524D01*
X153453554Y-82420000D01*
X153447339Y-82420000D01*
X153345606Y-82447259D01*
X153254394Y-82499920D01*
X153179920Y-82574394D01*
X153127259Y-82665606D01*
X153100000Y-82767339D01*
X153100000Y-82773553D01*
X152420524Y-82094077D01*
X152420523Y-82094077D01*
X152388143Y-82138644D01*
X152295244Y-82320968D01*
X152232009Y-82515582D01*
X152200000Y-82717682D01*
X152200000Y-82922317D01*
X152232009Y-83124417D01*
X152295244Y-83319031D01*
X152388141Y-83501350D01*
X152388147Y-83501359D01*
X152420523Y-83545921D01*
X152420524Y-83545922D01*
X153100000Y-82866446D01*
X153100000Y-82872661D01*
X153127259Y-82974394D01*
X153179920Y-83065606D01*
X153254394Y-83140080D01*
X153345606Y-83192741D01*
X153447339Y-83220000D01*
X153453553Y-83220000D01*
X152774076Y-83899474D01*
X152818650Y-83931859D01*
X152912180Y-83979515D01*
X152962976Y-84027489D01*
X152979771Y-84095310D01*
X152957234Y-84161445D01*
X152912180Y-84200485D01*
X152818644Y-84248143D01*
X152774077Y-84280523D01*
X152774077Y-84280524D01*
X153453554Y-84960000D01*
X153447339Y-84960000D01*
X153345606Y-84987259D01*
X153254394Y-85039920D01*
X153179920Y-85114394D01*
X153127259Y-85205606D01*
X153100000Y-85307339D01*
X153100000Y-85313553D01*
X152420524Y-84634077D01*
X152420523Y-84634077D01*
X152388143Y-84678644D01*
X152295244Y-84860968D01*
X152232009Y-85055582D01*
X152200000Y-85257682D01*
X152200000Y-85462317D01*
X152232009Y-85664417D01*
X152295244Y-85859031D01*
X152388141Y-86041350D01*
X152388147Y-86041359D01*
X152420523Y-86085921D01*
X152420524Y-86085922D01*
X153100000Y-85406446D01*
X153100000Y-85412661D01*
X153127259Y-85514394D01*
X153179920Y-85605606D01*
X153254394Y-85680080D01*
X153345606Y-85732741D01*
X153447339Y-85760000D01*
X153453553Y-85760000D01*
X152774076Y-86439474D01*
X152818652Y-86471861D01*
X152911628Y-86519234D01*
X152962425Y-86567208D01*
X152979220Y-86635029D01*
X152956683Y-86701164D01*
X152911630Y-86740203D01*
X152818388Y-86787713D01*
X152652786Y-86908028D01*
X152508028Y-87052786D01*
X152387715Y-87218386D01*
X152294781Y-87400776D01*
X152231522Y-87595465D01*
X152199500Y-87797648D01*
X152199500Y-88002351D01*
X152231522Y-88204534D01*
X152294781Y-88399223D01*
X152339839Y-88487652D01*
X152365406Y-88537831D01*
X152387715Y-88581613D01*
X152508028Y-88747213D01*
X152652786Y-88891971D01*
X152799733Y-88998732D01*
X152818390Y-89012287D01*
X152909840Y-89058883D01*
X152911080Y-89059515D01*
X152961876Y-89107490D01*
X152978671Y-89175311D01*
X152956134Y-89241446D01*
X152911080Y-89280485D01*
X152818386Y-89327715D01*
X152652786Y-89448028D01*
X152508028Y-89592786D01*
X152387715Y-89758386D01*
X152294781Y-89940776D01*
X152231522Y-90135465D01*
X152199500Y-90337647D01*
X152199500Y-90542351D01*
X152231522Y-90744534D01*
X152294781Y-90939223D01*
X152387715Y-91121613D01*
X152508028Y-91287213D01*
X152652786Y-91431971D01*
X152818385Y-91552284D01*
X152818387Y-91552285D01*
X152818390Y-91552287D01*
X152911082Y-91599516D01*
X152961877Y-91647489D01*
X152978672Y-91715310D01*
X152956135Y-91781445D01*
X152911081Y-91820484D01*
X152818391Y-91867712D01*
X152818389Y-91867713D01*
X152652786Y-91988029D01*
X152508028Y-92132787D01*
X152387715Y-92298387D01*
X152294781Y-92480777D01*
X152231522Y-92675466D01*
X152199500Y-92877649D01*
X152199500Y-93082352D01*
X152231522Y-93284535D01*
X152294781Y-93479224D01*
X152358691Y-93604654D01*
X152387712Y-93661610D01*
X152387715Y-93661614D01*
X152508028Y-93827214D01*
X152652786Y-93971972D01*
X152807749Y-94084557D01*
X152818390Y-94092288D01*
X152934607Y-94151504D01*
X153000776Y-94185219D01*
X153000778Y-94185219D01*
X153000781Y-94185221D01*
X153105137Y-94219128D01*
X153195465Y-94248478D01*
X153272966Y-94260752D01*
X153343513Y-94271926D01*
X153406648Y-94301855D01*
X153411797Y-94306718D01*
X155529584Y-96424506D01*
X155563069Y-96485829D01*
X155558085Y-96555521D01*
X155516213Y-96611454D01*
X155510795Y-96615289D01*
X155387215Y-96697863D01*
X155247863Y-96837215D01*
X155247860Y-96837219D01*
X155138372Y-97001079D01*
X155138367Y-97001089D01*
X155062949Y-97183163D01*
X155062947Y-97183171D01*
X155024500Y-97376455D01*
X155024500Y-97573544D01*
X155062947Y-97766828D01*
X155062949Y-97766836D01*
X155138367Y-97948910D01*
X155138372Y-97948920D01*
X155247860Y-98112780D01*
X155247863Y-98112784D01*
X155763181Y-98628101D01*
X155796666Y-98689424D01*
X155799500Y-98715782D01*
X155799500Y-105285858D01*
X155779815Y-105352897D01*
X155727011Y-105398652D01*
X155718847Y-105402034D01*
X155707669Y-105406204D01*
X155707664Y-105406206D01*
X155592455Y-105492452D01*
X155592452Y-105492455D01*
X155506206Y-105607664D01*
X155506202Y-105607671D01*
X155456997Y-105739598D01*
X155415126Y-105795532D01*
X155349661Y-105819949D01*
X155281388Y-105805097D01*
X155253134Y-105783946D01*
X155139464Y-105670276D01*
X155139459Y-105670272D01*
X154967557Y-105545379D01*
X154778215Y-105448903D01*
X154576124Y-105383241D01*
X154510000Y-105372768D01*
X154510000Y-106266988D01*
X154452993Y-106234075D01*
X154325826Y-106200000D01*
X154194174Y-106200000D01*
X154067007Y-106234075D01*
X154010000Y-106266988D01*
X154010000Y-105372768D01*
X154009999Y-105372768D01*
X153943875Y-105383241D01*
X153741784Y-105448903D01*
X153552442Y-105545379D01*
X153380540Y-105670272D01*
X153380535Y-105670276D01*
X153230276Y-105820535D01*
X153230272Y-105820540D01*
X153105378Y-105992442D01*
X153100483Y-106002050D01*
X153052506Y-106052844D01*
X152984684Y-106069637D01*
X152918550Y-106047097D01*
X152879514Y-106002044D01*
X152874621Y-105992441D01*
X152749728Y-105820540D01*
X152749724Y-105820535D01*
X152599465Y-105670276D01*
X152599460Y-105670272D01*
X152427558Y-105545379D01*
X152238216Y-105448903D01*
X152036125Y-105383241D01*
X151970001Y-105372768D01*
X151970001Y-106266988D01*
X151912994Y-106234075D01*
X151785827Y-106200000D01*
X151654175Y-106200000D01*
X151527008Y-106234075D01*
X151470001Y-106266988D01*
X151470001Y-105372768D01*
X151470000Y-105372768D01*
X151403876Y-105383241D01*
X151201785Y-105448903D01*
X151012443Y-105545379D01*
X150840541Y-105670272D01*
X150840536Y-105670276D01*
X150690277Y-105820535D01*
X150690273Y-105820540D01*
X150565378Y-105992444D01*
X150560764Y-106001500D01*
X150512789Y-106052294D01*
X150444967Y-106069088D01*
X150378833Y-106046549D01*
X150339796Y-106001496D01*
X150335050Y-105992182D01*
X150210109Y-105820213D01*
X150059786Y-105669890D01*
X149887820Y-105544951D01*
X149698414Y-105448444D01*
X149698413Y-105448443D01*
X149698412Y-105448443D01*
X149496243Y-105382754D01*
X149496241Y-105382753D01*
X149496240Y-105382753D01*
X149334957Y-105357208D01*
X149286287Y-105349500D01*
X149073713Y-105349500D01*
X149025042Y-105357208D01*
X148863760Y-105382753D01*
X148762672Y-105415598D01*
X148697468Y-105436785D01*
X148661585Y-105448444D01*
X148472179Y-105544951D01*
X148300213Y-105669890D01*
X148149890Y-105820213D01*
X148024951Y-105992179D01*
X147928444Y-106181585D01*
X147862753Y-106383760D01*
X147843233Y-106507007D01*
X147829500Y-106593713D01*
X147829500Y-106806287D01*
X147833423Y-106831054D01*
X147848381Y-106925500D01*
X147862754Y-107016243D01*
X147887828Y-107093414D01*
X147928444Y-107218414D01*
X148024951Y-107407820D01*
X148149890Y-107579786D01*
X148300213Y-107730109D01*
X148472179Y-107855048D01*
X148472181Y-107855049D01*
X148472184Y-107855051D01*
X148661588Y-107951557D01*
X148863757Y-108017246D01*
X149073713Y-108050500D01*
X149073714Y-108050500D01*
X149286286Y-108050500D01*
X149286287Y-108050500D01*
X149496243Y-108017246D01*
X149698412Y-107951557D01*
X149887816Y-107855051D01*
X149953200Y-107807547D01*
X150059786Y-107730109D01*
X150059788Y-107730106D01*
X150059792Y-107730104D01*
X150210104Y-107579792D01*
X150210106Y-107579788D01*
X150210109Y-107579786D01*
X150335048Y-107407820D01*
X150335047Y-107407820D01*
X150335051Y-107407816D01*
X150339795Y-107398504D01*
X150387767Y-107347708D01*
X150455587Y-107330911D01*
X150521723Y-107353446D01*
X150560766Y-107398503D01*
X150565378Y-107407555D01*
X150690273Y-107579459D01*
X150690277Y-107579464D01*
X150840536Y-107729723D01*
X150840541Y-107729727D01*
X151012443Y-107854620D01*
X151201783Y-107951095D01*
X151403872Y-108016757D01*
X151470001Y-108027231D01*
X151470001Y-107133012D01*
X151527008Y-107165925D01*
X151654175Y-107200000D01*
X151785827Y-107200000D01*
X151912994Y-107165925D01*
X151970001Y-107133012D01*
X151970001Y-108027230D01*
X152036127Y-108016757D01*
X152036130Y-108016757D01*
X152238218Y-107951095D01*
X152427558Y-107854620D01*
X152599460Y-107729727D01*
X152599465Y-107729723D01*
X152749724Y-107579464D01*
X152749728Y-107579459D01*
X152874622Y-107407556D01*
X152879513Y-107397958D01*
X152927485Y-107347160D01*
X152995305Y-107330362D01*
X153061441Y-107352896D01*
X153100484Y-107397952D01*
X153105377Y-107407555D01*
X153230272Y-107579459D01*
X153230276Y-107579464D01*
X153380535Y-107729723D01*
X153380540Y-107729727D01*
X153552442Y-107854620D01*
X153741782Y-107951095D01*
X153943871Y-108016757D01*
X154010000Y-108027231D01*
X154010000Y-107133012D01*
X154067007Y-107165925D01*
X154194174Y-107200000D01*
X154325826Y-107200000D01*
X154452993Y-107165925D01*
X154510000Y-107133012D01*
X154510000Y-108027230D01*
X154576126Y-108016757D01*
X154576129Y-108016757D01*
X154778217Y-107951095D01*
X154967557Y-107854620D01*
X155139458Y-107729728D01*
X155253133Y-107616053D01*
X155314456Y-107582568D01*
X155384148Y-107587552D01*
X155440082Y-107629423D01*
X155456997Y-107660401D01*
X155506202Y-107792328D01*
X155506206Y-107792335D01*
X155592452Y-107907544D01*
X155592455Y-107907547D01*
X155707664Y-107993793D01*
X155707671Y-107993797D01*
X155842517Y-108044091D01*
X155842516Y-108044091D01*
X155849444Y-108044835D01*
X155902127Y-108050500D01*
X157697872Y-108050499D01*
X157757483Y-108044091D01*
X157892331Y-107993796D01*
X158007546Y-107907546D01*
X158093796Y-107792331D01*
X158144091Y-107657483D01*
X158150500Y-107597873D01*
X158150499Y-105802128D01*
X158144091Y-105742517D01*
X158143002Y-105739598D01*
X158093797Y-105607671D01*
X158093793Y-105607664D01*
X158007547Y-105492455D01*
X158007544Y-105492452D01*
X157892335Y-105406206D01*
X157892332Y-105406205D01*
X157892331Y-105406204D01*
X157881161Y-105402038D01*
X157825231Y-105360166D01*
X157800816Y-105294701D01*
X157800500Y-105285858D01*
X157800500Y-104953711D01*
X164099500Y-104953711D01*
X164099500Y-105196288D01*
X164127135Y-105406206D01*
X164131162Y-105436789D01*
X164133349Y-105444951D01*
X164193947Y-105671104D01*
X164240688Y-105783946D01*
X164286776Y-105895212D01*
X164408064Y-106105289D01*
X164408066Y-106105292D01*
X164408067Y-106105293D01*
X164555733Y-106297736D01*
X164555739Y-106297743D01*
X164727256Y-106469260D01*
X164727262Y-106469265D01*
X164919711Y-106616936D01*
X165129788Y-106738224D01*
X165353900Y-106831054D01*
X165588211Y-106893838D01*
X165758397Y-106916243D01*
X165828711Y-106925500D01*
X165828712Y-106925500D01*
X166071289Y-106925500D01*
X166141603Y-106916243D01*
X166311789Y-106893838D01*
X166546100Y-106831054D01*
X166770212Y-106738224D01*
X166980289Y-106616936D01*
X167172738Y-106469265D01*
X167344265Y-106297738D01*
X167491936Y-106105289D01*
X167613224Y-105895212D01*
X167706054Y-105671100D01*
X167768838Y-105436789D01*
X167800500Y-105196288D01*
X167800500Y-104953712D01*
X167768838Y-104713211D01*
X167706054Y-104478900D01*
X167613224Y-104254788D01*
X167491936Y-104044711D01*
X167344265Y-103852262D01*
X167344260Y-103852256D01*
X167172743Y-103680739D01*
X167172736Y-103680733D01*
X166980293Y-103533067D01*
X166980292Y-103533066D01*
X166980289Y-103533064D01*
X166770212Y-103411776D01*
X166770205Y-103411773D01*
X166546104Y-103318947D01*
X166311785Y-103256161D01*
X166071289Y-103224500D01*
X166071288Y-103224500D01*
X165828712Y-103224500D01*
X165828711Y-103224500D01*
X165588214Y-103256161D01*
X165353895Y-103318947D01*
X165129794Y-103411773D01*
X165129785Y-103411777D01*
X164919706Y-103533067D01*
X164727263Y-103680733D01*
X164727256Y-103680739D01*
X164555739Y-103852256D01*
X164555733Y-103852263D01*
X164408067Y-104044706D01*
X164286777Y-104254785D01*
X164286773Y-104254794D01*
X164193947Y-104478895D01*
X164131161Y-104713214D01*
X164099500Y-104953711D01*
X157800500Y-104953711D01*
X157800500Y-98348546D01*
X157800501Y-98348541D01*
X157800501Y-98151460D01*
X157800500Y-98151454D01*
X157800500Y-96181460D01*
X157800500Y-96181457D01*
X157762052Y-95988171D01*
X157762051Y-95988170D01*
X157762051Y-95988166D01*
X157762049Y-95988161D01*
X157686635Y-95806093D01*
X157686628Y-95806080D01*
X157577140Y-95642220D01*
X157577139Y-95642219D01*
X157437782Y-95502862D01*
X157437781Y-95502861D01*
X154826716Y-92891797D01*
X154793232Y-92830475D01*
X154791925Y-92823514D01*
X154768477Y-92675467D01*
X154768477Y-92675466D01*
X154705218Y-92480777D01*
X154671503Y-92414608D01*
X154612287Y-92298391D01*
X154604556Y-92287750D01*
X154491971Y-92132787D01*
X154347213Y-91988029D01*
X154181613Y-91867716D01*
X154181612Y-91867715D01*
X154181610Y-91867714D01*
X154088917Y-91820484D01*
X154038122Y-91772510D01*
X154021327Y-91704689D01*
X154043864Y-91638554D01*
X154088917Y-91599516D01*
X154181610Y-91552287D01*
X154231144Y-91516298D01*
X154347213Y-91431971D01*
X154347215Y-91431968D01*
X154347219Y-91431966D01*
X154491966Y-91287219D01*
X154491968Y-91287215D01*
X154491971Y-91287213D01*
X154544732Y-91214590D01*
X154612287Y-91121610D01*
X154705220Y-90939219D01*
X154768477Y-90744534D01*
X154800500Y-90542352D01*
X154800500Y-90337648D01*
X154782458Y-90223733D01*
X154768477Y-90135465D01*
X154705218Y-89940776D01*
X154671503Y-89874607D01*
X154612287Y-89758390D01*
X154604556Y-89747749D01*
X154491971Y-89592786D01*
X154347213Y-89448028D01*
X154181614Y-89327715D01*
X154175006Y-89324348D01*
X154088917Y-89280483D01*
X154038123Y-89232511D01*
X154021328Y-89164690D01*
X154043865Y-89098555D01*
X154088917Y-89059516D01*
X154181610Y-89012287D01*
X154202770Y-88996913D01*
X154347213Y-88891971D01*
X154347215Y-88891968D01*
X154347219Y-88891966D01*
X154491966Y-88747219D01*
X154491968Y-88747215D01*
X154491971Y-88747213D01*
X154544732Y-88674590D01*
X154612287Y-88581610D01*
X154705220Y-88399219D01*
X154768477Y-88204534D01*
X154800500Y-88002352D01*
X154800500Y-87797648D01*
X154768477Y-87595466D01*
X154768250Y-87594769D01*
X154767368Y-87589088D01*
X154771305Y-87559306D01*
X154772784Y-87529304D01*
X154775938Y-87524274D01*
X154776527Y-87519821D01*
X154785020Y-87509791D01*
X154802215Y-87482373D01*
X157498798Y-84785791D01*
X157560119Y-84752308D01*
X157562114Y-84751892D01*
X157673497Y-84729737D01*
X157819179Y-84669394D01*
X157950289Y-84581789D01*
X158061789Y-84470289D01*
X158149394Y-84339179D01*
X158209737Y-84193497D01*
X158240500Y-84038842D01*
X158240500Y-83881158D01*
X158240500Y-83881155D01*
X158239556Y-83876411D01*
X158239556Y-83876409D01*
X158239555Y-83876406D01*
X158212379Y-83739786D01*
X158209737Y-83726503D01*
X158209735Y-83726498D01*
X158149397Y-83580827D01*
X158149390Y-83580814D01*
X158061789Y-83449711D01*
X158061786Y-83449707D01*
X157950292Y-83338213D01*
X157950288Y-83338210D01*
X157819185Y-83250609D01*
X157819172Y-83250602D01*
X157673501Y-83190264D01*
X157673489Y-83190261D01*
X157518845Y-83159500D01*
X157518842Y-83159500D01*
X157361158Y-83159500D01*
X157361155Y-83159500D01*
X157206510Y-83190261D01*
X157206498Y-83190264D01*
X157060827Y-83250602D01*
X157060814Y-83250609D01*
X156929711Y-83338210D01*
X156929707Y-83338213D01*
X156818213Y-83449707D01*
X156818210Y-83449711D01*
X156730609Y-83580814D01*
X156730602Y-83580827D01*
X156670264Y-83726498D01*
X156670261Y-83726508D01*
X156648141Y-83837713D01*
X156615756Y-83899624D01*
X156614205Y-83901202D01*
X155011681Y-85503727D01*
X154950358Y-85537212D01*
X154880666Y-85532228D01*
X154824733Y-85490356D01*
X154800316Y-85424892D01*
X154800000Y-85416046D01*
X154800000Y-85257682D01*
X154767990Y-85055582D01*
X154704755Y-84860968D01*
X154611859Y-84678650D01*
X154579474Y-84634077D01*
X154579474Y-84634076D01*
X153900000Y-85313553D01*
X153900000Y-85307339D01*
X153872741Y-85205606D01*
X153820080Y-85114394D01*
X153745606Y-85039920D01*
X153654394Y-84987259D01*
X153552661Y-84960000D01*
X153546446Y-84960000D01*
X154225922Y-84280524D01*
X154225921Y-84280523D01*
X154181359Y-84248147D01*
X154181350Y-84248141D01*
X154087819Y-84200485D01*
X154037023Y-84152511D01*
X154020228Y-84084690D01*
X154042765Y-84018555D01*
X154087820Y-83979515D01*
X154181346Y-83931861D01*
X154181347Y-83931861D01*
X154225921Y-83899474D01*
X153546447Y-83220000D01*
X153552661Y-83220000D01*
X153654394Y-83192741D01*
X153745606Y-83140080D01*
X153820080Y-83065606D01*
X153872741Y-82974394D01*
X153900000Y-82872661D01*
X153900000Y-82866447D01*
X154579474Y-83545921D01*
X154611859Y-83501349D01*
X154704755Y-83319031D01*
X154767990Y-83124417D01*
X154800000Y-82922317D01*
X154800000Y-82717682D01*
X154767990Y-82515582D01*
X154704755Y-82320968D01*
X154611859Y-82138650D01*
X154579474Y-82094077D01*
X154579474Y-82094076D01*
X153900000Y-82773551D01*
X153900000Y-82767339D01*
X153872741Y-82665606D01*
X153820080Y-82574394D01*
X153745606Y-82499920D01*
X153654394Y-82447259D01*
X153552661Y-82420000D01*
X153546446Y-82420000D01*
X154225922Y-81740524D01*
X154225921Y-81740523D01*
X154181359Y-81708147D01*
X154181350Y-81708141D01*
X154088368Y-81660764D01*
X154037572Y-81612789D01*
X154020777Y-81544968D01*
X154043315Y-81478833D01*
X154088366Y-81439795D01*
X154181610Y-81392286D01*
X154236608Y-81352328D01*
X154347213Y-81271970D01*
X154347215Y-81271967D01*
X154347219Y-81271965D01*
X154491966Y-81127218D01*
X154491970Y-81127213D01*
X154491971Y-81127212D01*
X154544732Y-81054589D01*
X154612287Y-80961609D01*
X154705220Y-80779218D01*
X154768477Y-80584533D01*
X154800500Y-80382351D01*
X154800500Y-80177647D01*
X154768477Y-79975465D01*
X154705220Y-79780780D01*
X154705218Y-79780776D01*
X154705218Y-79780775D01*
X154671503Y-79714606D01*
X154612287Y-79598389D01*
X154604556Y-79587748D01*
X154491971Y-79432785D01*
X154347213Y-79288027D01*
X154181613Y-79167714D01*
X154181612Y-79167713D01*
X154181610Y-79167712D01*
X154088920Y-79120484D01*
X154038124Y-79072509D01*
X154021329Y-79004688D01*
X154043866Y-78938553D01*
X154088919Y-78899515D01*
X154181610Y-78852287D01*
X154231144Y-78816298D01*
X154347213Y-78731971D01*
X154347215Y-78731968D01*
X154347219Y-78731966D01*
X154491966Y-78587219D01*
X154491968Y-78587215D01*
X154491971Y-78587213D01*
X154544732Y-78514590D01*
X154612287Y-78421610D01*
X154705220Y-78239219D01*
X154768477Y-78044534D01*
X154800500Y-77842352D01*
X154800500Y-77637648D01*
X154768477Y-77435466D01*
X154705220Y-77240781D01*
X154705218Y-77240778D01*
X154705218Y-77240776D01*
X154671503Y-77174607D01*
X154612287Y-77058390D01*
X154604556Y-77047749D01*
X154491971Y-76892786D01*
X154347219Y-76748034D01*
X154347211Y-76748028D01*
X154253547Y-76679978D01*
X154210882Y-76624649D01*
X154204903Y-76555036D01*
X154237508Y-76493240D01*
X154287426Y-76461955D01*
X154369334Y-76434814D01*
X154518656Y-76342712D01*
X154642712Y-76218656D01*
X154734814Y-76069334D01*
X154789999Y-75902797D01*
X154800500Y-75800009D01*
X154800499Y-74599992D01*
X154789999Y-74497203D01*
X154734814Y-74330666D01*
X154642712Y-74181344D01*
X154523549Y-74062181D01*
X154490064Y-74000858D01*
X154495048Y-73931166D01*
X154536920Y-73875233D01*
X154602384Y-73850816D01*
X154611230Y-73850500D01*
X158304218Y-73850500D01*
X158371257Y-73870185D01*
X158391899Y-73886819D01*
X159793281Y-75288201D01*
X159826766Y-75349524D01*
X159828073Y-75356483D01*
X159851523Y-75504535D01*
X159914781Y-75699223D01*
X159966135Y-75800009D01*
X159995938Y-75858501D01*
X160007715Y-75881613D01*
X160128028Y-76047213D01*
X160272786Y-76191971D01*
X160427749Y-76304556D01*
X160438390Y-76312287D01*
X160529840Y-76358883D01*
X160531080Y-76359515D01*
X160581876Y-76407490D01*
X160598671Y-76475311D01*
X160576134Y-76541446D01*
X160531080Y-76580485D01*
X160438386Y-76627715D01*
X160272786Y-76748028D01*
X160128028Y-76892786D01*
X160007715Y-77058386D01*
X159914781Y-77240776D01*
X159851522Y-77435465D01*
X159819500Y-77637648D01*
X159819500Y-77842351D01*
X159851522Y-78044534D01*
X159914781Y-78239223D01*
X160007715Y-78421613D01*
X160128028Y-78587213D01*
X160272786Y-78731971D01*
X160427749Y-78844556D01*
X160438390Y-78852287D01*
X160529840Y-78898883D01*
X160531080Y-78899515D01*
X160581876Y-78947490D01*
X160598671Y-79015311D01*
X160576134Y-79081446D01*
X160531080Y-79120485D01*
X160438386Y-79167715D01*
X160272786Y-79288028D01*
X160128028Y-79432786D01*
X160007715Y-79598386D01*
X159914781Y-79780776D01*
X159851522Y-79975465D01*
X159819500Y-80177648D01*
X159819500Y-80382351D01*
X159851522Y-80584534D01*
X159914781Y-80779223D01*
X159978691Y-80904653D01*
X160007712Y-80961609D01*
X160007715Y-80961613D01*
X160128028Y-81127213D01*
X160272786Y-81271971D01*
X160438385Y-81392284D01*
X160438387Y-81392285D01*
X160438390Y-81392287D01*
X160531628Y-81439794D01*
X160531630Y-81439795D01*
X160582426Y-81487770D01*
X160599221Y-81555591D01*
X160576684Y-81621725D01*
X160531630Y-81660765D01*
X160438644Y-81708143D01*
X160394077Y-81740523D01*
X160394077Y-81740524D01*
X161073554Y-82420000D01*
X161067339Y-82420000D01*
X160965606Y-82447259D01*
X160874394Y-82499920D01*
X160799920Y-82574394D01*
X160747259Y-82665606D01*
X160720000Y-82767339D01*
X160720000Y-82773553D01*
X160040524Y-82094077D01*
X160040523Y-82094077D01*
X160008143Y-82138644D01*
X159915244Y-82320968D01*
X159852009Y-82515582D01*
X159820000Y-82717682D01*
X159820000Y-82922317D01*
X159852009Y-83124417D01*
X159915244Y-83319031D01*
X160008141Y-83501350D01*
X160008147Y-83501359D01*
X160040523Y-83545921D01*
X160040524Y-83545922D01*
X160720000Y-82866446D01*
X160720000Y-82872661D01*
X160747259Y-82974394D01*
X160799920Y-83065606D01*
X160874394Y-83140080D01*
X160965606Y-83192741D01*
X161067339Y-83220000D01*
X161073553Y-83220000D01*
X160394076Y-83899474D01*
X160438650Y-83931859D01*
X160532180Y-83979515D01*
X160582976Y-84027489D01*
X160599771Y-84095310D01*
X160577234Y-84161445D01*
X160532180Y-84200485D01*
X160438644Y-84248143D01*
X160394077Y-84280523D01*
X160394077Y-84280524D01*
X161073554Y-84960000D01*
X161067339Y-84960000D01*
X160965606Y-84987259D01*
X160874394Y-85039920D01*
X160799920Y-85114394D01*
X160747259Y-85205606D01*
X160720000Y-85307339D01*
X160720000Y-85313553D01*
X160040524Y-84634077D01*
X160040523Y-84634077D01*
X160008143Y-84678644D01*
X159915244Y-84860968D01*
X159852009Y-85055582D01*
X159820000Y-85257682D01*
X159820000Y-85462317D01*
X159852009Y-85664417D01*
X159915244Y-85859031D01*
X160008141Y-86041350D01*
X160008147Y-86041359D01*
X160040523Y-86085921D01*
X160040524Y-86085922D01*
X160720000Y-85406446D01*
X160720000Y-85412661D01*
X160747259Y-85514394D01*
X160799920Y-85605606D01*
X160874394Y-85680080D01*
X160965606Y-85732741D01*
X161067339Y-85760000D01*
X161073553Y-85760000D01*
X160394076Y-86439474D01*
X160438652Y-86471861D01*
X160531628Y-86519234D01*
X160582425Y-86567208D01*
X160599220Y-86635029D01*
X160576683Y-86701164D01*
X160531630Y-86740203D01*
X160438388Y-86787713D01*
X160272786Y-86908028D01*
X160128028Y-87052786D01*
X160007715Y-87218386D01*
X159914781Y-87400776D01*
X159851522Y-87595465D01*
X159819500Y-87797648D01*
X159819500Y-88002351D01*
X159851522Y-88204534D01*
X159914781Y-88399223D01*
X159959839Y-88487652D01*
X159985406Y-88537831D01*
X160007715Y-88581613D01*
X160128028Y-88747213D01*
X160272786Y-88891971D01*
X160419733Y-88998732D01*
X160438390Y-89012287D01*
X160529840Y-89058883D01*
X160531080Y-89059515D01*
X160581876Y-89107490D01*
X160598671Y-89175311D01*
X160576134Y-89241446D01*
X160531080Y-89280485D01*
X160438386Y-89327715D01*
X160272786Y-89448028D01*
X160128028Y-89592786D01*
X160007715Y-89758386D01*
X159914781Y-89940776D01*
X159851522Y-90135465D01*
X159819500Y-90337647D01*
X159819500Y-90542351D01*
X159851522Y-90744534D01*
X159914781Y-90939223D01*
X160007715Y-91121613D01*
X160128028Y-91287213D01*
X160272786Y-91431971D01*
X160427749Y-91544556D01*
X160438390Y-91552287D01*
X160529840Y-91598883D01*
X160531080Y-91599515D01*
X160581876Y-91647490D01*
X160598671Y-91715311D01*
X160576134Y-91781446D01*
X160531080Y-91820485D01*
X160438386Y-91867715D01*
X160272786Y-91988028D01*
X160128028Y-92132786D01*
X160007715Y-92298386D01*
X159914781Y-92480776D01*
X159851522Y-92675465D01*
X159819500Y-92877648D01*
X159819500Y-93082351D01*
X159851522Y-93284534D01*
X159914781Y-93479223D01*
X160007715Y-93661613D01*
X160128028Y-93827213D01*
X160272786Y-93971971D01*
X160427749Y-94084556D01*
X160438390Y-94092287D01*
X160554607Y-94151503D01*
X160620776Y-94185218D01*
X160620778Y-94185218D01*
X160620781Y-94185220D01*
X160725137Y-94219127D01*
X160815465Y-94248477D01*
X160916557Y-94264488D01*
X161017648Y-94280500D01*
X161017649Y-94280500D01*
X161222351Y-94280500D01*
X161222352Y-94280500D01*
X161424534Y-94248477D01*
X161619219Y-94185220D01*
X161801610Y-94092287D01*
X161894590Y-94024732D01*
X161967213Y-93971971D01*
X161967215Y-93971968D01*
X161967219Y-93971966D01*
X162111966Y-93827219D01*
X162111970Y-93827214D01*
X162111971Y-93827213D01*
X162164732Y-93754590D01*
X162232287Y-93661610D01*
X162325220Y-93479219D01*
X162388477Y-93284534D01*
X162420500Y-93082352D01*
X162420500Y-92877648D01*
X162388477Y-92675466D01*
X162325220Y-92480781D01*
X162325218Y-92480777D01*
X162325218Y-92480776D01*
X162291503Y-92414607D01*
X162232287Y-92298390D01*
X162224556Y-92287749D01*
X162111971Y-92132786D01*
X161967213Y-91988028D01*
X161801614Y-91867715D01*
X161795006Y-91864348D01*
X161708917Y-91820483D01*
X161658123Y-91772511D01*
X161641328Y-91704690D01*
X161663865Y-91638555D01*
X161708917Y-91599516D01*
X161801610Y-91552287D01*
X161822770Y-91536913D01*
X161967213Y-91431971D01*
X161967215Y-91431968D01*
X161967219Y-91431966D01*
X162111966Y-91287219D01*
X162111968Y-91287215D01*
X162111971Y-91287213D01*
X162164732Y-91214590D01*
X162232287Y-91121610D01*
X162325220Y-90939219D01*
X162388477Y-90744534D01*
X162420500Y-90542352D01*
X162420500Y-90337648D01*
X162402458Y-90223733D01*
X162388477Y-90135465D01*
X162325218Y-89940776D01*
X162291503Y-89874607D01*
X162232287Y-89758390D01*
X162224556Y-89747749D01*
X162111971Y-89592786D01*
X161967213Y-89448028D01*
X161801614Y-89327715D01*
X161795006Y-89324348D01*
X161708917Y-89280483D01*
X161658123Y-89232511D01*
X161641328Y-89164690D01*
X161663865Y-89098555D01*
X161708917Y-89059516D01*
X161801610Y-89012287D01*
X161822770Y-88996913D01*
X161967213Y-88891971D01*
X161967215Y-88891968D01*
X161967219Y-88891966D01*
X162111966Y-88747219D01*
X162111968Y-88747215D01*
X162111971Y-88747213D01*
X162235151Y-88577669D01*
X162236823Y-88578884D01*
X162282208Y-88537831D01*
X162336115Y-88525500D01*
X163626608Y-88525500D01*
X163626608Y-88525499D01*
X163707579Y-88509394D01*
X163747452Y-88501463D01*
X163780792Y-88487652D01*
X163861286Y-88454312D01*
X163916306Y-88417548D01*
X163963733Y-88385858D01*
X164050858Y-88298733D01*
X164050858Y-88298731D01*
X164061066Y-88288524D01*
X164061068Y-88288521D01*
X164562819Y-87786770D01*
X164624142Y-87753285D01*
X164693834Y-87758269D01*
X164749767Y-87800141D01*
X164774184Y-87865605D01*
X164774500Y-87874451D01*
X164774500Y-87986287D01*
X164807754Y-88196243D01*
X164869364Y-88385859D01*
X164873444Y-88398414D01*
X164969951Y-88587820D01*
X165094890Y-88759786D01*
X165245213Y-88910109D01*
X165417179Y-89035048D01*
X165417181Y-89035049D01*
X165417184Y-89035051D01*
X165606588Y-89131557D01*
X165808757Y-89197246D01*
X166018713Y-89230500D01*
X166018714Y-89230500D01*
X166231286Y-89230500D01*
X166231287Y-89230500D01*
X166441243Y-89197246D01*
X166643412Y-89131557D01*
X166832816Y-89035051D01*
X166882805Y-88998732D01*
X167004786Y-88910109D01*
X167004788Y-88910106D01*
X167004792Y-88910104D01*
X167155104Y-88759792D01*
X167155106Y-88759788D01*
X167155109Y-88759786D01*
X167280048Y-88587820D01*
X167280047Y-88587820D01*
X167280051Y-88587816D01*
X167376557Y-88398412D01*
X167442246Y-88196243D01*
X167475500Y-87986287D01*
X167475500Y-87773713D01*
X167442246Y-87563757D01*
X167376557Y-87361588D01*
X167280051Y-87172184D01*
X167280049Y-87172181D01*
X167280048Y-87172179D01*
X167155109Y-87000213D01*
X167004786Y-86849890D01*
X166832820Y-86724951D01*
X166832115Y-86724591D01*
X166824054Y-86720485D01*
X166773259Y-86672512D01*
X166756463Y-86604692D01*
X166778999Y-86538556D01*
X166824054Y-86499515D01*
X166832816Y-86495051D01*
X166909312Y-86439474D01*
X167004786Y-86370109D01*
X167004788Y-86370106D01*
X167004792Y-86370104D01*
X167155104Y-86219792D01*
X167155106Y-86219788D01*
X167155109Y-86219786D01*
X167280048Y-86047820D01*
X167280047Y-86047820D01*
X167280051Y-86047816D01*
X167376557Y-85858412D01*
X167442246Y-85656243D01*
X167475500Y-85446287D01*
X167475500Y-85233713D01*
X167442246Y-85023757D01*
X167376557Y-84821588D01*
X167280051Y-84632184D01*
X167280049Y-84632181D01*
X167280048Y-84632179D01*
X167155109Y-84460213D01*
X167004786Y-84309890D01*
X166832820Y-84184951D01*
X166832115Y-84184591D01*
X166824054Y-84180485D01*
X166773259Y-84132512D01*
X166756463Y-84064692D01*
X166778999Y-83998556D01*
X166824054Y-83959515D01*
X166832816Y-83955051D01*
X166888425Y-83914649D01*
X167004786Y-83830109D01*
X167004788Y-83830106D01*
X167004792Y-83830104D01*
X167155104Y-83679792D01*
X167155106Y-83679788D01*
X167155109Y-83679786D01*
X167280048Y-83507820D01*
X167280047Y-83507820D01*
X167280051Y-83507816D01*
X167376557Y-83318412D01*
X167442246Y-83116243D01*
X167475500Y-82906287D01*
X167475500Y-82693713D01*
X167442246Y-82483757D01*
X167376557Y-82281588D01*
X167280051Y-82092184D01*
X167280049Y-82092181D01*
X167280048Y-82092179D01*
X167155109Y-81920213D01*
X167041569Y-81806673D01*
X167008084Y-81745350D01*
X167013068Y-81675658D01*
X167054940Y-81619725D01*
X167085915Y-81602810D01*
X167217331Y-81553796D01*
X167332546Y-81467546D01*
X167418796Y-81352331D01*
X167469091Y-81217483D01*
X167475500Y-81157873D01*
X167475499Y-79362128D01*
X167469091Y-79302517D01*
X167463689Y-79288034D01*
X167418797Y-79167671D01*
X167418793Y-79167664D01*
X167332547Y-79052455D01*
X167332544Y-79052452D01*
X167217335Y-78966206D01*
X167217328Y-78966202D01*
X167082482Y-78915908D01*
X167082483Y-78915908D01*
X167022883Y-78909501D01*
X167022881Y-78909500D01*
X167022873Y-78909500D01*
X167022864Y-78909500D01*
X165227129Y-78909500D01*
X165227123Y-78909501D01*
X165167516Y-78915908D01*
X165032671Y-78966202D01*
X165032664Y-78966206D01*
X164917455Y-79052452D01*
X164917452Y-79052455D01*
X164831206Y-79167664D01*
X164831202Y-79167671D01*
X164780908Y-79302517D01*
X164774501Y-79362116D01*
X164774501Y-79362123D01*
X164774500Y-79362135D01*
X164774500Y-81157870D01*
X164774501Y-81157876D01*
X164780908Y-81217483D01*
X164831202Y-81352328D01*
X164831206Y-81352335D01*
X164917452Y-81467544D01*
X164917455Y-81467547D01*
X165032664Y-81553793D01*
X165032671Y-81553797D01*
X165164082Y-81602810D01*
X165220016Y-81644681D01*
X165244433Y-81710145D01*
X165229582Y-81778418D01*
X165208431Y-81806673D01*
X165094889Y-81920215D01*
X164969951Y-82092179D01*
X164873444Y-82281585D01*
X164807753Y-82483760D01*
X164774500Y-82693713D01*
X164774500Y-82906286D01*
X164807754Y-83116246D01*
X164812821Y-83131840D01*
X164813255Y-83147051D01*
X164818574Y-83161311D01*
X164814232Y-83181266D01*
X164814816Y-83201681D01*
X164806727Y-83215767D01*
X164803722Y-83229584D01*
X164782571Y-83257838D01*
X164782228Y-83258181D01*
X164720905Y-83291666D01*
X164694547Y-83294500D01*
X163782350Y-83294500D01*
X163715311Y-83274815D01*
X163713459Y-83273602D01*
X163619184Y-83210609D01*
X163619172Y-83210602D01*
X163473501Y-83150264D01*
X163473489Y-83150261D01*
X163318845Y-83119500D01*
X163318842Y-83119500D01*
X163161158Y-83119500D01*
X163161155Y-83119500D01*
X163006510Y-83150261D01*
X163006498Y-83150264D01*
X162860827Y-83210602D01*
X162860814Y-83210609D01*
X162729711Y-83298210D01*
X162729707Y-83298213D01*
X162618213Y-83409707D01*
X162618210Y-83409711D01*
X162530609Y-83540814D01*
X162530602Y-83540827D01*
X162470264Y-83686498D01*
X162470261Y-83686510D01*
X162439500Y-83841153D01*
X162439500Y-83998846D01*
X162470261Y-84153489D01*
X162470264Y-84153501D01*
X162530602Y-84299172D01*
X162530609Y-84299185D01*
X162618210Y-84430288D01*
X162618213Y-84430292D01*
X162729707Y-84541786D01*
X162729711Y-84541789D01*
X162860814Y-84629390D01*
X162860827Y-84629397D01*
X162961784Y-84671214D01*
X163006503Y-84689737D01*
X163161153Y-84720499D01*
X163161156Y-84720500D01*
X163161158Y-84720500D01*
X163318844Y-84720500D01*
X163318845Y-84720499D01*
X163473497Y-84689737D01*
X163612443Y-84632184D01*
X163619172Y-84629397D01*
X163619172Y-84629396D01*
X163619179Y-84629394D01*
X163713459Y-84566398D01*
X163780136Y-84545520D01*
X163782350Y-84545500D01*
X164719346Y-84545500D01*
X164751733Y-84549804D01*
X164759427Y-84551885D01*
X164782549Y-84561463D01*
X164828891Y-84570681D01*
X164832956Y-84571781D01*
X164859297Y-84587925D01*
X164886672Y-84602245D01*
X164888822Y-84606021D01*
X164892527Y-84608292D01*
X164905955Y-84636108D01*
X164921246Y-84662961D01*
X164921013Y-84667301D01*
X164922902Y-84671214D01*
X164919160Y-84701871D01*
X164917506Y-84732730D01*
X164914553Y-84739612D01*
X164914437Y-84740569D01*
X164913829Y-84741300D01*
X164911054Y-84747772D01*
X164873444Y-84821585D01*
X164807753Y-85023760D01*
X164774500Y-85233713D01*
X164774500Y-85446286D01*
X164807754Y-85656246D01*
X164807754Y-85656247D01*
X164812821Y-85671842D01*
X164814814Y-85741683D01*
X164782570Y-85797837D01*
X163342229Y-87238181D01*
X163280906Y-87271666D01*
X163254548Y-87274500D01*
X162336115Y-87274500D01*
X162269076Y-87254815D01*
X162236393Y-87221428D01*
X162235151Y-87222331D01*
X162111971Y-87052786D01*
X161967213Y-86908028D01*
X161801611Y-86787713D01*
X161708369Y-86740203D01*
X161657574Y-86692229D01*
X161640779Y-86624407D01*
X161663317Y-86558273D01*
X161708371Y-86519234D01*
X161801346Y-86471861D01*
X161801347Y-86471861D01*
X161845921Y-86439474D01*
X161166447Y-85760000D01*
X161172661Y-85760000D01*
X161274394Y-85732741D01*
X161365606Y-85680080D01*
X161440080Y-85605606D01*
X161492741Y-85514394D01*
X161520000Y-85412661D01*
X161520000Y-85406448D01*
X162199474Y-86085922D01*
X162199474Y-86085921D01*
X162231859Y-86041349D01*
X162324755Y-85859031D01*
X162387990Y-85664417D01*
X162420000Y-85462317D01*
X162420000Y-85257682D01*
X162387990Y-85055582D01*
X162324755Y-84860968D01*
X162231859Y-84678650D01*
X162199474Y-84634077D01*
X162199474Y-84634076D01*
X161520000Y-85313551D01*
X161520000Y-85307339D01*
X161492741Y-85205606D01*
X161440080Y-85114394D01*
X161365606Y-85039920D01*
X161274394Y-84987259D01*
X161172661Y-84960000D01*
X161166446Y-84960000D01*
X161845922Y-84280524D01*
X161845921Y-84280523D01*
X161801359Y-84248147D01*
X161801350Y-84248141D01*
X161707819Y-84200485D01*
X161657023Y-84152511D01*
X161640228Y-84084690D01*
X161662765Y-84018555D01*
X161707820Y-83979515D01*
X161801346Y-83931861D01*
X161801347Y-83931861D01*
X161845921Y-83899474D01*
X161166447Y-83220000D01*
X161172661Y-83220000D01*
X161274394Y-83192741D01*
X161365606Y-83140080D01*
X161440080Y-83065606D01*
X161492741Y-82974394D01*
X161520000Y-82872661D01*
X161520000Y-82866448D01*
X162199474Y-83545922D01*
X162199474Y-83545921D01*
X162231859Y-83501349D01*
X162324755Y-83319031D01*
X162387990Y-83124417D01*
X162420000Y-82922317D01*
X162420000Y-82717682D01*
X162387990Y-82515582D01*
X162324755Y-82320968D01*
X162231859Y-82138650D01*
X162199474Y-82094077D01*
X162199474Y-82094076D01*
X161520000Y-82773551D01*
X161520000Y-82767339D01*
X161492741Y-82665606D01*
X161440080Y-82574394D01*
X161365606Y-82499920D01*
X161274394Y-82447259D01*
X161172661Y-82420000D01*
X161166446Y-82420000D01*
X161845922Y-81740524D01*
X161845921Y-81740523D01*
X161801359Y-81708147D01*
X161801350Y-81708141D01*
X161708369Y-81660765D01*
X161657573Y-81612790D01*
X161640778Y-81544969D01*
X161663315Y-81478835D01*
X161708370Y-81439795D01*
X161708372Y-81439794D01*
X161801610Y-81392287D01*
X161856609Y-81352328D01*
X161967213Y-81271971D01*
X161967215Y-81271968D01*
X161967219Y-81271966D01*
X162111966Y-81127219D01*
X162111968Y-81127215D01*
X162111971Y-81127213D01*
X162164732Y-81054590D01*
X162232287Y-80961610D01*
X162325220Y-80779219D01*
X162388477Y-80584534D01*
X162420500Y-80382352D01*
X162420500Y-80177648D01*
X162388477Y-79975466D01*
X162388476Y-79975464D01*
X162325218Y-79780776D01*
X162291503Y-79714607D01*
X162232287Y-79598390D01*
X162224556Y-79587749D01*
X162111971Y-79432786D01*
X161967213Y-79288028D01*
X161801614Y-79167715D01*
X161795006Y-79164348D01*
X161708917Y-79120483D01*
X161658123Y-79072511D01*
X161641328Y-79004690D01*
X161663865Y-78938555D01*
X161708917Y-78899516D01*
X161801610Y-78852287D01*
X161822770Y-78836913D01*
X161967213Y-78731971D01*
X161967215Y-78731968D01*
X161967219Y-78731966D01*
X162111966Y-78587219D01*
X162111968Y-78587215D01*
X162111971Y-78587213D01*
X162164732Y-78514590D01*
X162232287Y-78421610D01*
X162325220Y-78239219D01*
X162388477Y-78044534D01*
X162420500Y-77842352D01*
X162420500Y-77637648D01*
X162388477Y-77435466D01*
X162325220Y-77240781D01*
X162325218Y-77240778D01*
X162325218Y-77240776D01*
X162291503Y-77174607D01*
X162232287Y-77058390D01*
X162224556Y-77047749D01*
X162111971Y-76892786D01*
X161967213Y-76748028D01*
X161801614Y-76627715D01*
X161795006Y-76624348D01*
X161708917Y-76580483D01*
X161658123Y-76532511D01*
X161641328Y-76464690D01*
X161663865Y-76398555D01*
X161708917Y-76359516D01*
X161801610Y-76312287D01*
X161822770Y-76296913D01*
X161967213Y-76191971D01*
X161967215Y-76191968D01*
X161967219Y-76191966D01*
X162111966Y-76047219D01*
X162111968Y-76047215D01*
X162111971Y-76047213D01*
X162216892Y-75902799D01*
X162232287Y-75881610D01*
X162325220Y-75699219D01*
X162388477Y-75504534D01*
X162420500Y-75302352D01*
X162420500Y-75097648D01*
X162388477Y-74895466D01*
X162325220Y-74700781D01*
X162325218Y-74700778D01*
X162325218Y-74700776D01*
X162284647Y-74621153D01*
X162232287Y-74518390D01*
X162216892Y-74497200D01*
X162111971Y-74352786D01*
X161967213Y-74208028D01*
X161801613Y-74087715D01*
X161801612Y-74087714D01*
X161801610Y-74087713D01*
X161738787Y-74055703D01*
X161619223Y-73994781D01*
X161424535Y-73931523D01*
X161276483Y-73908073D01*
X161213349Y-73878143D01*
X161208201Y-73873281D01*
X159551479Y-72216559D01*
X159551459Y-72216537D01*
X159407782Y-72072860D01*
X159243919Y-71963371D01*
X159243916Y-71963369D01*
X159243914Y-71963368D01*
X159243911Y-71963366D01*
X159243906Y-71963364D01*
X159117658Y-71911071D01*
X159117653Y-71911069D01*
X159110549Y-71908127D01*
X159061836Y-71887949D01*
X158965188Y-71868724D01*
X158960771Y-71867845D01*
X158960766Y-71867844D01*
X158868544Y-71849500D01*
X158868541Y-71849500D01*
X134890783Y-71849500D01*
X134823744Y-71829815D01*
X134803102Y-71813181D01*
X134662784Y-71672863D01*
X134662780Y-71672860D01*
X134498920Y-71563372D01*
X134498911Y-71563367D01*
X134316835Y-71487949D01*
X134316827Y-71487947D01*
X134123543Y-71449500D01*
X134123540Y-71449500D01*
X133926459Y-71449500D01*
X133926456Y-71449500D01*
X133733171Y-71487947D01*
X133733163Y-71487949D01*
X133551087Y-71563367D01*
X133551078Y-71563372D01*
X133387219Y-71672859D01*
X133317059Y-71743020D01*
X133246896Y-71813182D01*
X133185576Y-71846666D01*
X133159217Y-71849500D01*
X131190783Y-71849500D01*
X131123744Y-71829815D01*
X131103102Y-71813181D01*
X130862785Y-71572863D01*
X130862781Y-71572860D01*
X130698921Y-71463372D01*
X130698911Y-71463367D01*
X130516837Y-71387949D01*
X130516829Y-71387947D01*
X130323544Y-71349500D01*
X130323541Y-71349500D01*
X130126461Y-71349500D01*
X130126458Y-71349500D01*
X129933172Y-71387947D01*
X129933164Y-71387949D01*
X129751090Y-71463367D01*
X129751080Y-71463372D01*
X129587220Y-71572860D01*
X129587216Y-71572863D01*
X129196900Y-71963181D01*
X129135577Y-71996666D01*
X129109219Y-71999500D01*
X126276457Y-71999500D01*
X126083170Y-72037947D01*
X126083160Y-72037950D01*
X125901092Y-72113364D01*
X125901079Y-72113371D01*
X125737218Y-72222860D01*
X125737214Y-72222863D01*
X125597863Y-72362214D01*
X125597860Y-72362218D01*
X125488371Y-72526079D01*
X125488364Y-72526092D01*
X125412950Y-72708160D01*
X125412947Y-72708170D01*
X125374500Y-72901456D01*
X125374500Y-72901459D01*
X125374500Y-73098541D01*
X125374500Y-73098543D01*
X125374499Y-73098543D01*
X125412947Y-73291829D01*
X125412950Y-73291839D01*
X125488364Y-73473907D01*
X125488371Y-73473920D01*
X125597860Y-73637781D01*
X125597863Y-73637785D01*
X125737214Y-73777136D01*
X125737218Y-73777139D01*
X125901079Y-73886628D01*
X125901092Y-73886635D01*
X126083160Y-73962049D01*
X126083165Y-73962051D01*
X126083169Y-73962051D01*
X126083170Y-73962052D01*
X126276456Y-74000500D01*
X126276459Y-74000500D01*
X127590547Y-74000500D01*
X127657586Y-74020185D01*
X127703341Y-74072989D01*
X127713285Y-74142147D01*
X127684260Y-74205703D01*
X127678228Y-74212181D01*
X126927229Y-74963181D01*
X126865906Y-74996666D01*
X126839548Y-74999500D01*
X123956419Y-74999500D01*
X123889380Y-74979815D01*
X123843625Y-74927011D01*
X123833681Y-74857853D01*
X123835910Y-74847820D01*
X123835863Y-74847811D01*
X123875499Y-74648544D01*
X123875500Y-74648542D01*
X123875500Y-74451457D01*
X123875499Y-74451455D01*
X123874444Y-74446153D01*
X123837051Y-74258164D01*
X123761631Y-74076086D01*
X123761629Y-74076083D01*
X123761627Y-74076079D01*
X123652139Y-73912219D01*
X123652136Y-73912215D01*
X123512784Y-73772863D01*
X123512780Y-73772860D01*
X123348920Y-73663372D01*
X123348910Y-73663367D01*
X123166836Y-73587949D01*
X123166828Y-73587947D01*
X122973543Y-73549500D01*
X122973540Y-73549500D01*
X122776460Y-73549500D01*
X122776457Y-73549500D01*
X122583171Y-73587947D01*
X122583163Y-73587949D01*
X122520125Y-73614061D01*
X122472672Y-73623500D01*
X114214783Y-73623500D01*
X114147744Y-73603815D01*
X114127102Y-73587181D01*
X113352102Y-72812181D01*
X113318617Y-72750858D01*
X113323601Y-72681166D01*
X113365473Y-72625233D01*
X113430937Y-72600816D01*
X113439783Y-72600500D01*
X119836043Y-72600500D01*
X119966082Y-72574632D01*
X120029335Y-72562051D01*
X120211414Y-72486632D01*
X120375282Y-72377139D01*
X120514639Y-72237782D01*
X120624132Y-72073914D01*
X120699551Y-71891835D01*
X120738000Y-71698541D01*
X120738000Y-71501459D01*
X120738000Y-71501456D01*
X120699552Y-71308170D01*
X120699551Y-71308169D01*
X120699551Y-71308165D01*
X120699549Y-71308160D01*
X120624135Y-71126092D01*
X120624128Y-71126079D01*
X120514639Y-70962218D01*
X120514636Y-70962214D01*
X120375285Y-70822863D01*
X120375281Y-70822860D01*
X120211420Y-70713371D01*
X120211407Y-70713364D01*
X120029339Y-70637950D01*
X120029329Y-70637947D01*
X119836043Y-70599500D01*
X119836041Y-70599500D01*
X116484500Y-70599500D01*
X116417461Y-70579815D01*
X116371706Y-70527011D01*
X116360500Y-70475500D01*
X116360500Y-70451155D01*
X116360499Y-70451153D01*
X116347901Y-70387819D01*
X116329737Y-70296503D01*
X116270647Y-70153846D01*
X116269397Y-70150827D01*
X116269390Y-70150814D01*
X116181789Y-70019711D01*
X116181786Y-70019707D01*
X116070292Y-69908213D01*
X116070288Y-69908210D01*
X115939185Y-69820609D01*
X115939172Y-69820602D01*
X115793501Y-69760264D01*
X115793489Y-69760261D01*
X115682285Y-69738141D01*
X115620374Y-69705756D01*
X115618795Y-69704205D01*
X111890998Y-65976408D01*
X111870634Y-65939114D01*
X126774437Y-65939114D01*
X126927063Y-66002334D01*
X126927071Y-66002336D01*
X127091277Y-66034999D01*
X127091280Y-66035000D01*
X127258720Y-66035000D01*
X127258722Y-66034999D01*
X127422928Y-66002336D01*
X127422936Y-66002334D01*
X127575561Y-65939114D01*
X127175001Y-65538553D01*
X127175000Y-65538553D01*
X126774437Y-65939114D01*
X111870634Y-65939114D01*
X111857513Y-65915085D01*
X111862497Y-65845393D01*
X111904369Y-65789460D01*
X111940361Y-65770797D01*
X111953412Y-65766557D01*
X112142816Y-65670051D01*
X112204232Y-65625430D01*
X112314786Y-65545109D01*
X112314788Y-65545106D01*
X112314792Y-65545104D01*
X112465104Y-65394792D01*
X112465106Y-65394788D01*
X112465109Y-65394786D01*
X112566668Y-65255000D01*
X112590051Y-65222816D01*
X112594793Y-65213508D01*
X112642763Y-65162711D01*
X112710583Y-65145911D01*
X112776719Y-65168445D01*
X112815763Y-65213500D01*
X112820377Y-65222555D01*
X112945272Y-65394459D01*
X112945276Y-65394464D01*
X113095535Y-65544723D01*
X113095540Y-65544727D01*
X113267442Y-65669620D01*
X113456782Y-65766095D01*
X113658871Y-65831757D01*
X113725000Y-65842231D01*
X113725000Y-64948012D01*
X113782007Y-64980925D01*
X113909174Y-65015000D01*
X114040826Y-65015000D01*
X114167993Y-64980925D01*
X114225000Y-64948012D01*
X114225000Y-65842230D01*
X114291126Y-65831757D01*
X114291129Y-65831757D01*
X114493217Y-65766095D01*
X114682557Y-65669620D01*
X114854458Y-65544728D01*
X114968133Y-65431053D01*
X115029456Y-65397568D01*
X115099148Y-65402552D01*
X115155082Y-65444423D01*
X115171997Y-65475401D01*
X115221202Y-65607328D01*
X115221206Y-65607335D01*
X115307452Y-65722544D01*
X115307455Y-65722547D01*
X115422664Y-65808793D01*
X115422671Y-65808797D01*
X115557517Y-65859091D01*
X115557516Y-65859091D01*
X115564444Y-65859835D01*
X115617127Y-65865500D01*
X117412872Y-65865499D01*
X117472483Y-65859091D01*
X117607331Y-65808796D01*
X117722546Y-65722546D01*
X117808796Y-65607331D01*
X117859091Y-65472483D01*
X117865500Y-65412873D01*
X117865499Y-63617128D01*
X117859091Y-63557517D01*
X117858072Y-63554786D01*
X117808797Y-63422671D01*
X117803432Y-63415504D01*
X117762951Y-63361428D01*
X124875000Y-63361428D01*
X124875000Y-63955000D01*
X125525000Y-63955000D01*
X125525000Y-64455000D01*
X124875000Y-64455000D01*
X124875000Y-65048571D01*
X124911506Y-65232097D01*
X124911508Y-65232105D01*
X124983119Y-65404991D01*
X124983124Y-65405000D01*
X125087086Y-65560589D01*
X125087089Y-65560593D01*
X125219406Y-65692910D01*
X125219410Y-65692913D01*
X125374999Y-65796875D01*
X125375012Y-65796882D01*
X125547889Y-65868489D01*
X125547896Y-65868491D01*
X125575000Y-65873882D01*
X125575000Y-65121988D01*
X125584940Y-65139205D01*
X125640795Y-65195060D01*
X125709204Y-65234556D01*
X125785504Y-65255000D01*
X125864496Y-65255000D01*
X125940796Y-65234556D01*
X126009205Y-65195060D01*
X126065060Y-65139205D01*
X126075000Y-65121988D01*
X126075000Y-65873881D01*
X126102103Y-65868491D01*
X126102110Y-65868489D01*
X126261619Y-65802419D01*
X126376849Y-65632715D01*
X126380447Y-65629752D01*
X126382193Y-65625430D01*
X126391755Y-65614690D01*
X126821445Y-65184999D01*
X126781664Y-65145218D01*
X126975000Y-65145218D01*
X126975000Y-65224782D01*
X127005448Y-65298291D01*
X127061709Y-65354552D01*
X127135218Y-65385000D01*
X127214782Y-65385000D01*
X127288291Y-65354552D01*
X127344552Y-65298291D01*
X127375000Y-65224782D01*
X127375000Y-65145218D01*
X127344552Y-65071709D01*
X127288291Y-65015448D01*
X127214782Y-64985000D01*
X127135218Y-64985000D01*
X127061709Y-65015448D01*
X127005448Y-65071709D01*
X126975000Y-65145218D01*
X126781664Y-65145218D01*
X126392939Y-64756493D01*
X126359454Y-64695170D01*
X126364438Y-64625478D01*
X126392939Y-64581131D01*
X126464070Y-64510000D01*
X126392938Y-64438868D01*
X126359454Y-64377545D01*
X126364438Y-64307853D01*
X126392939Y-64263506D01*
X126910542Y-63745904D01*
X126971865Y-63712419D01*
X127011876Y-63715280D01*
X127005448Y-63721709D01*
X126975000Y-63795218D01*
X126975000Y-63874782D01*
X127005448Y-63948291D01*
X127061709Y-64004552D01*
X127135218Y-64035000D01*
X127214782Y-64035000D01*
X127288291Y-64004552D01*
X127344552Y-63948291D01*
X127375000Y-63874782D01*
X127375000Y-63831065D01*
X127377431Y-63832885D01*
X127399782Y-63883004D01*
X127423535Y-64002420D01*
X127423538Y-64002428D01*
X127470687Y-64116257D01*
X127470692Y-64116266D01*
X127512223Y-64178421D01*
X127533101Y-64245099D01*
X127514616Y-64312479D01*
X127462638Y-64359169D01*
X127393668Y-64370345D01*
X127329604Y-64342459D01*
X127321440Y-64334993D01*
X127175001Y-64188553D01*
X127175000Y-64188553D01*
X126853553Y-64510000D01*
X127175000Y-64831446D01*
X127175001Y-64831446D01*
X127496446Y-64510001D01*
X127496446Y-64498750D01*
X127476492Y-64462208D01*
X127481476Y-64392516D01*
X127523348Y-64336583D01*
X127588812Y-64312166D01*
X127657085Y-64327018D01*
X127666549Y-64332748D01*
X127728707Y-64374281D01*
X127728713Y-64374284D01*
X127728714Y-64374285D01*
X127842548Y-64421437D01*
X127963394Y-64445474D01*
X128086606Y-64445474D01*
X128207452Y-64421437D01*
X128321286Y-64374285D01*
X128423733Y-64305832D01*
X128453732Y-64275832D01*
X128515053Y-64242348D01*
X128584745Y-64247332D01*
X128603408Y-64256124D01*
X128642256Y-64278553D01*
X128681810Y-64301390D01*
X128681814Y-64301392D01*
X128809108Y-64335500D01*
X128809110Y-64335500D01*
X128940889Y-64335500D01*
X128940892Y-64335500D01*
X129068186Y-64301392D01*
X129068190Y-64301389D01*
X129069898Y-64300932D01*
X129085575Y-64301305D01*
X129100571Y-64296715D01*
X129119790Y-64302119D01*
X129139748Y-64302595D01*
X129152734Y-64311384D01*
X129167832Y-64315630D01*
X129181077Y-64330567D01*
X129197611Y-64341757D01*
X129203784Y-64356173D01*
X129214189Y-64367907D01*
X129217256Y-64387633D01*
X129225115Y-64405986D01*
X129222656Y-64422365D01*
X129224924Y-64436947D01*
X129216941Y-64460443D01*
X129215369Y-64470923D01*
X129212684Y-64476984D01*
X129165423Y-64558843D01*
X129148567Y-64621747D01*
X129144663Y-64630563D01*
X129128062Y-64650170D01*
X129114694Y-64672102D01*
X129105862Y-64676391D01*
X129099516Y-64683888D01*
X129074948Y-64691408D01*
X129051847Y-64702630D01*
X129040115Y-64702071D01*
X129032707Y-64704339D01*
X129021487Y-64701183D01*
X128999195Y-64700122D01*
X128940892Y-64684500D01*
X128809108Y-64684500D01*
X128681812Y-64718608D01*
X128567686Y-64784500D01*
X128567682Y-64784503D01*
X128537679Y-64814506D01*
X128476355Y-64847991D01*
X128406664Y-64843005D01*
X128362318Y-64814505D01*
X128332315Y-64784502D01*
X128332313Y-64784500D01*
X128267375Y-64747008D01*
X128218186Y-64718608D01*
X128106533Y-64688691D01*
X128106532Y-64688691D01*
X128090891Y-64684500D01*
X127959107Y-64684500D01*
X127943466Y-64688691D01*
X127943464Y-64688691D01*
X127891444Y-64702630D01*
X127831813Y-64718608D01*
X127831811Y-64718608D01*
X127831811Y-64718609D01*
X127717685Y-64784500D01*
X127717682Y-64784502D01*
X127624501Y-64877683D01*
X127624499Y-64877686D01*
X127558607Y-64991812D01*
X127524499Y-65119108D01*
X127524499Y-65250891D01*
X127558607Y-65378187D01*
X127578639Y-65412883D01*
X127624499Y-65492314D01*
X127717685Y-65585500D01*
X127831813Y-65651392D01*
X127959107Y-65685500D01*
X127959109Y-65685500D01*
X128090889Y-65685500D01*
X128090891Y-65685500D01*
X128218185Y-65651392D01*
X128332313Y-65585500D01*
X128362319Y-65555493D01*
X128423639Y-65522009D01*
X128493331Y-65526993D01*
X128537680Y-65555494D01*
X128567686Y-65585500D01*
X128681814Y-65651392D01*
X128809108Y-65685500D01*
X128809110Y-65685500D01*
X128940890Y-65685500D01*
X128940892Y-65685500D01*
X128968408Y-65678127D01*
X129038256Y-65679790D01*
X129096119Y-65718952D01*
X129123623Y-65783181D01*
X129124500Y-65797902D01*
X129124500Y-67888330D01*
X129124499Y-67888348D01*
X129124499Y-68054054D01*
X129124498Y-68054054D01*
X129165424Y-68206789D01*
X129168979Y-68212946D01*
X129168983Y-68212951D01*
X129244477Y-68343712D01*
X129244481Y-68343717D01*
X129363349Y-68462585D01*
X129363355Y-68462590D01*
X130446200Y-69545436D01*
X130479685Y-69606759D01*
X130474701Y-69676451D01*
X130467883Y-69691560D01*
X130465605Y-69695822D01*
X130405264Y-69841498D01*
X130405261Y-69841510D01*
X130374500Y-69996153D01*
X130374500Y-70153846D01*
X130405261Y-70308489D01*
X130405264Y-70308501D01*
X130465602Y-70454172D01*
X130465609Y-70454185D01*
X130553210Y-70585288D01*
X130553213Y-70585292D01*
X130664707Y-70696786D01*
X130664711Y-70696789D01*
X130795814Y-70784390D01*
X130795827Y-70784397D01*
X130888689Y-70822861D01*
X130941503Y-70844737D01*
X131096153Y-70875499D01*
X131096156Y-70875500D01*
X131096158Y-70875500D01*
X131253844Y-70875500D01*
X131253845Y-70875499D01*
X131408497Y-70844737D01*
X131554179Y-70784394D01*
X131685289Y-70696789D01*
X131796789Y-70585289D01*
X131884394Y-70454179D01*
X131944737Y-70308497D01*
X131975500Y-70153842D01*
X131975500Y-69996158D01*
X131975500Y-69996155D01*
X131975499Y-69996153D01*
X131944737Y-69841503D01*
X131944735Y-69841498D01*
X131884397Y-69695827D01*
X131884390Y-69695814D01*
X131796399Y-69564126D01*
X131775521Y-69497448D01*
X131775501Y-69495235D01*
X131775501Y-69345944D01*
X131734576Y-69193214D01*
X131734573Y-69193209D01*
X131655524Y-69056290D01*
X131655518Y-69056282D01*
X130361819Y-67762583D01*
X130328334Y-67701260D01*
X130325500Y-67674902D01*
X130325500Y-65939114D01*
X132724437Y-65939114D01*
X132877063Y-66002334D01*
X132877071Y-66002336D01*
X133041277Y-66034999D01*
X133041280Y-66035000D01*
X133208720Y-66035000D01*
X133208722Y-66034999D01*
X133372928Y-66002336D01*
X133372936Y-66002334D01*
X133525561Y-65939114D01*
X133125001Y-65538553D01*
X133125000Y-65538553D01*
X132724437Y-65939114D01*
X130325500Y-65939114D01*
X130325500Y-65797902D01*
X130345185Y-65730863D01*
X130397989Y-65685108D01*
X130467147Y-65675164D01*
X130481585Y-65678125D01*
X130509108Y-65685500D01*
X130509110Y-65685500D01*
X130640890Y-65685500D01*
X130640892Y-65685500D01*
X130768186Y-65651392D01*
X130882314Y-65585500D01*
X130912319Y-65555494D01*
X130973639Y-65522010D01*
X131043331Y-65526994D01*
X131087680Y-65555495D01*
X131117685Y-65585500D01*
X131231813Y-65651392D01*
X131359107Y-65685500D01*
X131359109Y-65685500D01*
X131490889Y-65685500D01*
X131490891Y-65685500D01*
X131618185Y-65651392D01*
X131732313Y-65585500D01*
X131762319Y-65555493D01*
X131823639Y-65522009D01*
X131893331Y-65526993D01*
X131937680Y-65555494D01*
X131967686Y-65585500D01*
X132081814Y-65651392D01*
X132209108Y-65685500D01*
X132209110Y-65685500D01*
X132340890Y-65685500D01*
X132340892Y-65685500D01*
X132468186Y-65651392D01*
X132582314Y-65585500D01*
X132675500Y-65492314D01*
X132741392Y-65378186D01*
X132775500Y-65250892D01*
X132775500Y-65145218D01*
X132925000Y-65145218D01*
X132925000Y-65224782D01*
X132955448Y-65298291D01*
X133011709Y-65354552D01*
X133085218Y-65385000D01*
X133164782Y-65385000D01*
X133238291Y-65354552D01*
X133294552Y-65298291D01*
X133325000Y-65224782D01*
X133325000Y-65145218D01*
X133294552Y-65071709D01*
X133238291Y-65015448D01*
X133164782Y-64985000D01*
X133085218Y-64985000D01*
X133011709Y-65015448D01*
X132955448Y-65071709D01*
X132925000Y-65145218D01*
X132775500Y-65145218D01*
X132775500Y-65119108D01*
X132741392Y-64991814D01*
X132675500Y-64877686D01*
X132582314Y-64784500D01*
X132517376Y-64747008D01*
X132468187Y-64718608D01*
X132428570Y-64707993D01*
X132340892Y-64684500D01*
X132209108Y-64684500D01*
X132183327Y-64691408D01*
X132081812Y-64718608D01*
X131967686Y-64784500D01*
X131967682Y-64784503D01*
X131937679Y-64814506D01*
X131876355Y-64847991D01*
X131806664Y-64843005D01*
X131762318Y-64814505D01*
X131732315Y-64784502D01*
X131732313Y-64784500D01*
X131667375Y-64747008D01*
X131618186Y-64718608D01*
X131516172Y-64691274D01*
X131490891Y-64684500D01*
X131359107Y-64684500D01*
X131231811Y-64718608D01*
X131117685Y-64784500D01*
X131117681Y-64784503D01*
X131087679Y-64814505D01*
X131026355Y-64847990D01*
X130956664Y-64843004D01*
X130926160Y-64826441D01*
X130918798Y-64820984D01*
X130882314Y-64784500D01*
X130824698Y-64751235D01*
X130818995Y-64747008D01*
X130802029Y-64724567D01*
X130782618Y-64704209D01*
X130781242Y-64697072D01*
X130776859Y-64691274D01*
X130774718Y-64663220D01*
X130769396Y-64635601D01*
X130772096Y-64628854D01*
X130771544Y-64621606D01*
X130784909Y-64596851D01*
X130795364Y-64570737D01*
X130804666Y-64560256D01*
X130804738Y-64560125D01*
X130804827Y-64560075D01*
X130805142Y-64559721D01*
X131055520Y-64309344D01*
X131055521Y-64309341D01*
X131057809Y-64307054D01*
X131119132Y-64273569D01*
X131188824Y-64278553D01*
X131207493Y-64287350D01*
X131231810Y-64301390D01*
X131231811Y-64301390D01*
X131231814Y-64301392D01*
X131359108Y-64335500D01*
X131359110Y-64335500D01*
X131490890Y-64335500D01*
X131490892Y-64335500D01*
X131618186Y-64301392D01*
X131696585Y-64256127D01*
X131723647Y-64249562D01*
X131749740Y-64239830D01*
X131757131Y-64241438D01*
X131764485Y-64239654D01*
X131790803Y-64248762D01*
X131818013Y-64254682D01*
X131826703Y-64261188D01*
X131830512Y-64262506D01*
X131846267Y-64275833D01*
X131876263Y-64305829D01*
X131876267Y-64305832D01*
X131978707Y-64374281D01*
X131978713Y-64374284D01*
X131978714Y-64374285D01*
X132092548Y-64421437D01*
X132135258Y-64429932D01*
X132189350Y-64440692D01*
X132189352Y-64440692D01*
X132213394Y-64445474D01*
X132336606Y-64445474D01*
X132360648Y-64440692D01*
X132360649Y-64440692D01*
X132393090Y-64434238D01*
X132457452Y-64421437D01*
X132571286Y-64374285D01*
X132633448Y-64332749D01*
X132700123Y-64311872D01*
X132767504Y-64330356D01*
X132814194Y-64382334D01*
X132825371Y-64451304D01*
X132803553Y-64501429D01*
X132803553Y-64510000D01*
X133125000Y-64831446D01*
X133125001Y-64831446D01*
X133446446Y-64510001D01*
X133446446Y-64509999D01*
X133125001Y-64188553D01*
X133125000Y-64188553D01*
X132978559Y-64334993D01*
X132917236Y-64368478D01*
X132847544Y-64363494D01*
X132791611Y-64321622D01*
X132767194Y-64256158D01*
X132782046Y-64187885D01*
X132787766Y-64178435D01*
X132829311Y-64116260D01*
X132876463Y-64002426D01*
X132891554Y-63926555D01*
X132900217Y-63883005D01*
X132925000Y-63835625D01*
X132925000Y-63874782D01*
X132955448Y-63948291D01*
X133011709Y-64004552D01*
X133085218Y-64035000D01*
X133164782Y-64035000D01*
X133238291Y-64004552D01*
X133294552Y-63948291D01*
X133325000Y-63874782D01*
X133325000Y-63795218D01*
X133294552Y-63721709D01*
X133286020Y-63713177D01*
X133345109Y-63717403D01*
X133389457Y-63745904D01*
X133907060Y-64263506D01*
X133940545Y-64324829D01*
X133935561Y-64394520D01*
X133907061Y-64438868D01*
X133835929Y-64510000D01*
X133907060Y-64581131D01*
X133940545Y-64642454D01*
X133935561Y-64712146D01*
X133907060Y-64756493D01*
X133478553Y-65185000D01*
X133908243Y-65614690D01*
X133941728Y-65676013D01*
X133943965Y-65690217D01*
X133949501Y-65746427D01*
X134025005Y-65796878D01*
X134025012Y-65796882D01*
X134197889Y-65868489D01*
X134197896Y-65868491D01*
X134225000Y-65873882D01*
X134225000Y-65121988D01*
X134234940Y-65139205D01*
X134290795Y-65195060D01*
X134359204Y-65234556D01*
X134435504Y-65255000D01*
X134514496Y-65255000D01*
X134590796Y-65234556D01*
X134659205Y-65195060D01*
X134715060Y-65139205D01*
X134725000Y-65121988D01*
X134725000Y-65873881D01*
X134752103Y-65868491D01*
X134752110Y-65868489D01*
X134924987Y-65796882D01*
X134925000Y-65796875D01*
X135080589Y-65692913D01*
X135080593Y-65692910D01*
X135212910Y-65560593D01*
X135212913Y-65560589D01*
X135316875Y-65405000D01*
X135316880Y-65404991D01*
X135388491Y-65232105D01*
X135388493Y-65232097D01*
X135424999Y-65048571D01*
X135425000Y-65048569D01*
X135425000Y-64455000D01*
X134775000Y-64455000D01*
X134775000Y-63955000D01*
X135425000Y-63955000D01*
X135425000Y-63361430D01*
X135424999Y-63361428D01*
X135388493Y-63177902D01*
X135388491Y-63177894D01*
X135316880Y-63005008D01*
X135316875Y-63004999D01*
X135212913Y-62849410D01*
X135212910Y-62849406D01*
X135080593Y-62717089D01*
X135080589Y-62717086D01*
X135005545Y-62666943D01*
X134925000Y-62613124D01*
X134924991Y-62613119D01*
X134817785Y-62568713D01*
X141809499Y-62568713D01*
X141809499Y-62781286D01*
X141839772Y-62972427D01*
X141842753Y-62991243D01*
X141903402Y-63177902D01*
X141908443Y-63193414D01*
X142004950Y-63382820D01*
X142129889Y-63554786D01*
X142280212Y-63705109D01*
X142452178Y-63830048D01*
X142452180Y-63830049D01*
X142452183Y-63830051D01*
X142641587Y-63926557D01*
X142843756Y-63992246D01*
X143053712Y-64025500D01*
X143053713Y-64025500D01*
X143266285Y-64025500D01*
X143266286Y-64025500D01*
X143476242Y-63992246D01*
X143678411Y-63926557D01*
X143867815Y-63830051D01*
X143889788Y-63814086D01*
X144039785Y-63705109D01*
X144039787Y-63705106D01*
X144039791Y-63705104D01*
X144190103Y-63554792D01*
X144190105Y-63554788D01*
X144190108Y-63554786D01*
X144315047Y-63382821D01*
X144315342Y-63382242D01*
X144319512Y-63374056D01*
X144367483Y-63323260D01*
X144435303Y-63306462D01*
X144501439Y-63328996D01*
X144540483Y-63374052D01*
X144544949Y-63382817D01*
X144669890Y-63554786D01*
X144820213Y-63705109D01*
X144992179Y-63830048D01*
X144992181Y-63830049D01*
X144992184Y-63830051D01*
X145181588Y-63926557D01*
X145383757Y-63992246D01*
X145593713Y-64025500D01*
X145593714Y-64025500D01*
X145806286Y-64025500D01*
X145806287Y-64025500D01*
X146016243Y-63992246D01*
X146218412Y-63926557D01*
X146407816Y-63830051D01*
X146429789Y-63814086D01*
X146579786Y-63705109D01*
X146579788Y-63705106D01*
X146579792Y-63705104D01*
X146730104Y-63554792D01*
X146730106Y-63554788D01*
X146730109Y-63554786D01*
X146855048Y-63382820D01*
X146855050Y-63382817D01*
X146855051Y-63382816D01*
X146859512Y-63374058D01*
X146907483Y-63323262D01*
X146975303Y-63306464D01*
X147041440Y-63328998D01*
X147080483Y-63374054D01*
X147084948Y-63382817D01*
X147209889Y-63554786D01*
X147360212Y-63705109D01*
X147532178Y-63830048D01*
X147532180Y-63830049D01*
X147532183Y-63830051D01*
X147721587Y-63926557D01*
X147923756Y-63992246D01*
X148133712Y-64025500D01*
X148133713Y-64025500D01*
X148346285Y-64025500D01*
X148346286Y-64025500D01*
X148556242Y-63992246D01*
X148758411Y-63926557D01*
X148947815Y-63830051D01*
X149119791Y-63705104D01*
X149233328Y-63591566D01*
X149294647Y-63558084D01*
X149364339Y-63563068D01*
X149420273Y-63604939D01*
X149437188Y-63635917D01*
X149486201Y-63767328D01*
X149486205Y-63767335D01*
X149572451Y-63882544D01*
X149572454Y-63882547D01*
X149687663Y-63968793D01*
X149687670Y-63968797D01*
X149822516Y-64019091D01*
X149822515Y-64019091D01*
X149829443Y-64019835D01*
X149882126Y-64025500D01*
X151677871Y-64025499D01*
X151737482Y-64019091D01*
X151872330Y-63968796D01*
X151987545Y-63882546D01*
X152073795Y-63767331D01*
X152124090Y-63632483D01*
X152130499Y-63572873D01*
X152130498Y-62543713D01*
X154784500Y-62543713D01*
X154784500Y-62756287D01*
X154788460Y-62781287D01*
X154816520Y-62958457D01*
X154817754Y-62966243D01*
X154882172Y-63164501D01*
X154883444Y-63168414D01*
X154979951Y-63357820D01*
X155104890Y-63529786D01*
X155255213Y-63680109D01*
X155427179Y-63805048D01*
X155427181Y-63805049D01*
X155427184Y-63805051D01*
X155616588Y-63901557D01*
X155818757Y-63967246D01*
X156028713Y-64000500D01*
X156028714Y-64000500D01*
X156241286Y-64000500D01*
X156241287Y-64000500D01*
X156451243Y-63967246D01*
X156653412Y-63901557D01*
X156842816Y-63805051D01*
X156980374Y-63705110D01*
X157014784Y-63680110D01*
X157014784Y-63680109D01*
X157014792Y-63680104D01*
X157128329Y-63566566D01*
X157189648Y-63533084D01*
X157259340Y-63538068D01*
X157315274Y-63579939D01*
X157332189Y-63610917D01*
X157381202Y-63742328D01*
X157381206Y-63742335D01*
X157467452Y-63857544D01*
X157467455Y-63857547D01*
X157582664Y-63943793D01*
X157582671Y-63943797D01*
X157717517Y-63994091D01*
X157717516Y-63994091D01*
X157724444Y-63994835D01*
X157777127Y-64000500D01*
X159572872Y-64000499D01*
X159632483Y-63994091D01*
X159767331Y-63943796D01*
X159882546Y-63857546D01*
X159968796Y-63742331D01*
X160019091Y-63607483D01*
X160025500Y-63547873D01*
X160025499Y-62953711D01*
X164099500Y-62953711D01*
X164099500Y-63196288D01*
X164131161Y-63436785D01*
X164193947Y-63671104D01*
X164281530Y-63882547D01*
X164286776Y-63895212D01*
X164408064Y-64105289D01*
X164408066Y-64105292D01*
X164408067Y-64105293D01*
X164555733Y-64297736D01*
X164555739Y-64297743D01*
X164727256Y-64469260D01*
X164727263Y-64469266D01*
X164769179Y-64501429D01*
X164919711Y-64616936D01*
X165129788Y-64738224D01*
X165353900Y-64831054D01*
X165588211Y-64893838D01*
X165749707Y-64915099D01*
X165828711Y-64925500D01*
X165828712Y-64925500D01*
X166071289Y-64925500D01*
X166119388Y-64919167D01*
X166311789Y-64893838D01*
X166546100Y-64831054D01*
X166770212Y-64738224D01*
X166980289Y-64616936D01*
X167172738Y-64469265D01*
X167344265Y-64297738D01*
X167491936Y-64105289D01*
X167613224Y-63895212D01*
X167706054Y-63671100D01*
X167768838Y-63436789D01*
X167800500Y-63196288D01*
X167800500Y-62953712D01*
X167768838Y-62713211D01*
X167706054Y-62478900D01*
X167613224Y-62254788D01*
X167491936Y-62044711D01*
X167344265Y-61852262D01*
X167344260Y-61852256D01*
X167172743Y-61680739D01*
X167172736Y-61680733D01*
X166980293Y-61533067D01*
X166980292Y-61533066D01*
X166980289Y-61533064D01*
X166770212Y-61411776D01*
X166738026Y-61398444D01*
X166546104Y-61318947D01*
X166385623Y-61275946D01*
X166311789Y-61256162D01*
X166311788Y-61256161D01*
X166311785Y-61256161D01*
X166071289Y-61224500D01*
X166071288Y-61224500D01*
X165828712Y-61224500D01*
X165828711Y-61224500D01*
X165588214Y-61256161D01*
X165353895Y-61318947D01*
X165129794Y-61411773D01*
X165129785Y-61411777D01*
X164919706Y-61533067D01*
X164727263Y-61680733D01*
X164727256Y-61680739D01*
X164555739Y-61852256D01*
X164555733Y-61852263D01*
X164408067Y-62044706D01*
X164286777Y-62254785D01*
X164286773Y-62254794D01*
X164193947Y-62478895D01*
X164131161Y-62713214D01*
X164099500Y-62953711D01*
X160025499Y-62953711D01*
X160025499Y-62628999D01*
X160025499Y-61752129D01*
X160025498Y-61752123D01*
X160019091Y-61692516D01*
X159968797Y-61557671D01*
X159968793Y-61557664D01*
X159882547Y-61442455D01*
X159882544Y-61442452D01*
X159767335Y-61356206D01*
X159767328Y-61356202D01*
X159632482Y-61305908D01*
X159632483Y-61305908D01*
X159572883Y-61299501D01*
X159572881Y-61299500D01*
X159572873Y-61299500D01*
X159572864Y-61299500D01*
X157777129Y-61299500D01*
X157777123Y-61299501D01*
X157717516Y-61305908D01*
X157582671Y-61356202D01*
X157582664Y-61356206D01*
X157467455Y-61442452D01*
X157467452Y-61442455D01*
X157381206Y-61557664D01*
X157381203Y-61557669D01*
X157332189Y-61689083D01*
X157290317Y-61745016D01*
X157224853Y-61769433D01*
X157156580Y-61754581D01*
X157128326Y-61733430D01*
X157014786Y-61619890D01*
X156842820Y-61494951D01*
X156653414Y-61398444D01*
X156653413Y-61398443D01*
X156653412Y-61398443D01*
X156451243Y-61332754D01*
X156451241Y-61332753D01*
X156451240Y-61332753D01*
X156289957Y-61307208D01*
X156241287Y-61299500D01*
X156028713Y-61299500D01*
X155980042Y-61307208D01*
X155818760Y-61332753D01*
X155616585Y-61398444D01*
X155427179Y-61494951D01*
X155255213Y-61619890D01*
X155104890Y-61770213D01*
X154979951Y-61942179D01*
X154883444Y-62131585D01*
X154817753Y-62333760D01*
X154811206Y-62375099D01*
X154784500Y-62543713D01*
X152130498Y-62543713D01*
X152130498Y-61777128D01*
X152124090Y-61717517D01*
X152122809Y-61714083D01*
X152073796Y-61582671D01*
X152073792Y-61582664D01*
X151987546Y-61467455D01*
X151987543Y-61467452D01*
X151872334Y-61381206D01*
X151872327Y-61381202D01*
X151737481Y-61330908D01*
X151737482Y-61330908D01*
X151677882Y-61324501D01*
X151677880Y-61324500D01*
X151677872Y-61324500D01*
X151677863Y-61324500D01*
X149882128Y-61324500D01*
X149882122Y-61324501D01*
X149822515Y-61330908D01*
X149687670Y-61381202D01*
X149687663Y-61381206D01*
X149572454Y-61467452D01*
X149572451Y-61467455D01*
X149486205Y-61582664D01*
X149486202Y-61582669D01*
X149437188Y-61714083D01*
X149395316Y-61770016D01*
X149329852Y-61794433D01*
X149261579Y-61779581D01*
X149233325Y-61758430D01*
X149119785Y-61644890D01*
X148947819Y-61519951D01*
X148758413Y-61423444D01*
X148758412Y-61423443D01*
X148758411Y-61423443D01*
X148556242Y-61357754D01*
X148556240Y-61357753D01*
X148556239Y-61357753D01*
X148394956Y-61332208D01*
X148346286Y-61324500D01*
X148133712Y-61324500D01*
X148085041Y-61332208D01*
X147923759Y-61357753D01*
X147721584Y-61423444D01*
X147532178Y-61519951D01*
X147360212Y-61644890D01*
X147209889Y-61795213D01*
X147084947Y-61967183D01*
X147080481Y-61975949D01*
X147032505Y-62026742D01*
X146964683Y-62043535D01*
X146898549Y-62020995D01*
X146859513Y-61975942D01*
X146855051Y-61967184D01*
X146855049Y-61967181D01*
X146855048Y-61967179D01*
X146730109Y-61795213D01*
X146579786Y-61644890D01*
X146407820Y-61519951D01*
X146218414Y-61423444D01*
X146218413Y-61423443D01*
X146218412Y-61423443D01*
X146016243Y-61357754D01*
X146016241Y-61357753D01*
X146016240Y-61357753D01*
X145854957Y-61332208D01*
X145806287Y-61324500D01*
X145593713Y-61324500D01*
X145545042Y-61332208D01*
X145383760Y-61357753D01*
X145181585Y-61423444D01*
X144992179Y-61519951D01*
X144820213Y-61644890D01*
X144669890Y-61795213D01*
X144544948Y-61967184D01*
X144544946Y-61967187D01*
X144540481Y-61975950D01*
X144492505Y-62026744D01*
X144424683Y-62043537D01*
X144358549Y-62020997D01*
X144319513Y-61975944D01*
X144319512Y-61975942D01*
X144315050Y-61967184D01*
X144315048Y-61967181D01*
X144315047Y-61967179D01*
X144190108Y-61795213D01*
X144039785Y-61644890D01*
X143867819Y-61519951D01*
X143678413Y-61423444D01*
X143678412Y-61423443D01*
X143678411Y-61423443D01*
X143476242Y-61357754D01*
X143476240Y-61357753D01*
X143476239Y-61357753D01*
X143314956Y-61332208D01*
X143266286Y-61324500D01*
X143053712Y-61324500D01*
X143005041Y-61332208D01*
X142843759Y-61357753D01*
X142641584Y-61423444D01*
X142452178Y-61519951D01*
X142280212Y-61644890D01*
X142129889Y-61795213D01*
X142004950Y-61967179D01*
X141908443Y-62156585D01*
X141842752Y-62358760D01*
X141809499Y-62568713D01*
X134817785Y-62568713D01*
X134752103Y-62541507D01*
X134752100Y-62541506D01*
X134725000Y-62536115D01*
X134725000Y-63288011D01*
X134715060Y-63270795D01*
X134659205Y-63214940D01*
X134590796Y-63175444D01*
X134514496Y-63155000D01*
X134435504Y-63155000D01*
X134359204Y-63175444D01*
X134290795Y-63214940D01*
X134234940Y-63270795D01*
X134225000Y-63288011D01*
X134225000Y-62536116D01*
X134224999Y-62536115D01*
X134197899Y-62541506D01*
X134197896Y-62541507D01*
X134025008Y-62613119D01*
X134024999Y-62613124D01*
X133869410Y-62717086D01*
X133869406Y-62717089D01*
X133737089Y-62849406D01*
X133737086Y-62849410D01*
X133629736Y-63010071D01*
X133628636Y-63009336D01*
X133584427Y-63054337D01*
X133516288Y-63069794D01*
X133476586Y-63060597D01*
X133372940Y-63017666D01*
X133372928Y-63017663D01*
X133208721Y-62985000D01*
X133041279Y-62985000D01*
X132909658Y-63011181D01*
X132840067Y-63004954D01*
X132793219Y-62972427D01*
X132787292Y-62965828D01*
X132784415Y-62961523D01*
X132760858Y-62926267D01*
X132673733Y-62839142D01*
X132673732Y-62839141D01*
X132671382Y-62836791D01*
X132579833Y-62745242D01*
X132579832Y-62745241D01*
X132492707Y-62658116D01*
X132424860Y-62612782D01*
X132390260Y-62589662D01*
X132293388Y-62549537D01*
X132289845Y-62548069D01*
X132289836Y-62548065D01*
X132276429Y-62542512D01*
X132276427Y-62542511D01*
X132276426Y-62542511D01*
X132216003Y-62530492D01*
X132155584Y-62518474D01*
X132155581Y-62518474D01*
X132155580Y-62518474D01*
X128267632Y-62518474D01*
X128144419Y-62518474D01*
X128144414Y-62518474D01*
X128023581Y-62542509D01*
X128023573Y-62542511D01*
X127909742Y-62589661D01*
X127807291Y-62658116D01*
X127807288Y-62658119D01*
X127628618Y-62836791D01*
X127626269Y-62839140D01*
X127626267Y-62839142D01*
X127582705Y-62882704D01*
X127539143Y-62926265D01*
X127517633Y-62958457D01*
X127464020Y-63003261D01*
X127394695Y-63011967D01*
X127390341Y-63011181D01*
X127258721Y-62985000D01*
X127091279Y-62985000D01*
X126927071Y-63017663D01*
X126927059Y-63017666D01*
X126823413Y-63060598D01*
X126753944Y-63068067D01*
X126691465Y-63036792D01*
X126670685Y-63009789D01*
X126670264Y-63010071D01*
X126562913Y-62849410D01*
X126562910Y-62849406D01*
X126430593Y-62717089D01*
X126430589Y-62717086D01*
X126275000Y-62613124D01*
X126274991Y-62613119D01*
X126102103Y-62541507D01*
X126102100Y-62541506D01*
X126075000Y-62536115D01*
X126075000Y-63288011D01*
X126065060Y-63270795D01*
X126009205Y-63214940D01*
X125940796Y-63175444D01*
X125864496Y-63155000D01*
X125785504Y-63155000D01*
X125709204Y-63175444D01*
X125640795Y-63214940D01*
X125584940Y-63270795D01*
X125575000Y-63288011D01*
X125575000Y-62536116D01*
X125574999Y-62536115D01*
X125547899Y-62541506D01*
X125547896Y-62541507D01*
X125375008Y-62613119D01*
X125374999Y-62613124D01*
X125219410Y-62717086D01*
X125219406Y-62717089D01*
X125087089Y-62849406D01*
X125087086Y-62849410D01*
X124983124Y-63004999D01*
X124983119Y-63005008D01*
X124911508Y-63177894D01*
X124911506Y-63177902D01*
X124875000Y-63361428D01*
X117762951Y-63361428D01*
X117722546Y-63307454D01*
X117663690Y-63263394D01*
X117607335Y-63221206D01*
X117607328Y-63221202D01*
X117475917Y-63172189D01*
X117419983Y-63130318D01*
X117395566Y-63064853D01*
X117410418Y-62996580D01*
X117431563Y-62968332D01*
X117545104Y-62854792D01*
X117558183Y-62836791D01*
X117670048Y-62682820D01*
X117670047Y-62682820D01*
X117670051Y-62682816D01*
X117766557Y-62493412D01*
X117832246Y-62291243D01*
X117865500Y-62081287D01*
X117865500Y-61868713D01*
X117832246Y-61658757D01*
X117766557Y-61456588D01*
X117670051Y-61267184D01*
X117653356Y-61244205D01*
X117546060Y-61096523D01*
X117546059Y-61096521D01*
X117546056Y-61096518D01*
X117545105Y-61095209D01*
X117394786Y-60944890D01*
X117222820Y-60819951D01*
X117033414Y-60723444D01*
X117033413Y-60723443D01*
X117033412Y-60723443D01*
X116831243Y-60657754D01*
X116831241Y-60657753D01*
X116831240Y-60657753D01*
X116669957Y-60632208D01*
X116621287Y-60624500D01*
X116408713Y-60624500D01*
X116360042Y-60632208D01*
X116198760Y-60657753D01*
X115996585Y-60723444D01*
X115807179Y-60819951D01*
X115635213Y-60944890D01*
X115484890Y-61095213D01*
X115359949Y-61267182D01*
X115355202Y-61276499D01*
X115307227Y-61327293D01*
X115239405Y-61344087D01*
X115173271Y-61321548D01*
X115134234Y-61276495D01*
X115129622Y-61267444D01*
X115004727Y-61095540D01*
X115004723Y-61095535D01*
X114854464Y-60945276D01*
X114854459Y-60945272D01*
X114682557Y-60820379D01*
X114493215Y-60723903D01*
X114291124Y-60658241D01*
X114225000Y-60647768D01*
X114225000Y-61541988D01*
X114167993Y-61509075D01*
X114040826Y-61475000D01*
X113909174Y-61475000D01*
X113782007Y-61509075D01*
X113725000Y-61541988D01*
X113725000Y-60647768D01*
X113724999Y-60647768D01*
X113658875Y-60658241D01*
X113456784Y-60723903D01*
X113267442Y-60820379D01*
X113095540Y-60945272D01*
X113095535Y-60945276D01*
X112945276Y-61095535D01*
X112945272Y-61095540D01*
X112820378Y-61267443D01*
X112815762Y-61276502D01*
X112767784Y-61327295D01*
X112699963Y-61344087D01*
X112633829Y-61321546D01*
X112594794Y-61276493D01*
X112590051Y-61267184D01*
X112590049Y-61267181D01*
X112590048Y-61267179D01*
X112465109Y-61095213D01*
X112314786Y-60944890D01*
X112142820Y-60819951D01*
X111953414Y-60723444D01*
X111953413Y-60723443D01*
X111953412Y-60723443D01*
X111751243Y-60657754D01*
X111751241Y-60657753D01*
X111751240Y-60657753D01*
X111589957Y-60632208D01*
X111541287Y-60624500D01*
X111328713Y-60624500D01*
X111280042Y-60632208D01*
X111118760Y-60657753D01*
X110916585Y-60723444D01*
X110727179Y-60819951D01*
X110555213Y-60944890D01*
X110404890Y-61095213D01*
X110279949Y-61267182D01*
X110275484Y-61275946D01*
X110227509Y-61326742D01*
X110159688Y-61343536D01*
X110093553Y-61320998D01*
X110054516Y-61275946D01*
X110050050Y-61267182D01*
X109925109Y-61095213D01*
X109774786Y-60944890D01*
X109602820Y-60819951D01*
X109413414Y-60723444D01*
X109413413Y-60723443D01*
X109413412Y-60723443D01*
X109211243Y-60657754D01*
X109211241Y-60657753D01*
X109211240Y-60657753D01*
X109049957Y-60632208D01*
X109001287Y-60624500D01*
X108788713Y-60624500D01*
X108740042Y-60632208D01*
X108578760Y-60657753D01*
X108376585Y-60723444D01*
X108187179Y-60819951D01*
X108015213Y-60944890D01*
X107864890Y-61095213D01*
X107739949Y-61267182D01*
X107735484Y-61275946D01*
X107687509Y-61326742D01*
X107619688Y-61343536D01*
X107553553Y-61320998D01*
X107514516Y-61275946D01*
X107510050Y-61267182D01*
X107385109Y-61095213D01*
X107234786Y-60944890D01*
X107062820Y-60819951D01*
X106873414Y-60723444D01*
X106873413Y-60723443D01*
X106873412Y-60723443D01*
X106671243Y-60657754D01*
X106671241Y-60657753D01*
X106671240Y-60657753D01*
X106509957Y-60632208D01*
X106461287Y-60624500D01*
X106248713Y-60624500D01*
X106200042Y-60632208D01*
X106038760Y-60657753D01*
X105836585Y-60723444D01*
X105647179Y-60819951D01*
X105475213Y-60944890D01*
X105324890Y-61095213D01*
X105199951Y-61267179D01*
X105103444Y-61456585D01*
X105037753Y-61658760D01*
X105018617Y-61779581D01*
X105004500Y-61868713D01*
X100356889Y-61868713D01*
X100344266Y-61852263D01*
X100344260Y-61852256D01*
X100172743Y-61680739D01*
X100172736Y-61680733D01*
X99980293Y-61533067D01*
X99980292Y-61533066D01*
X99980289Y-61533064D01*
X99770212Y-61411776D01*
X99738026Y-61398444D01*
X99546104Y-61318947D01*
X99385623Y-61275946D01*
X99311789Y-61256162D01*
X99311788Y-61256161D01*
X99311785Y-61256161D01*
X99071289Y-61224500D01*
X99071288Y-61224500D01*
X98828712Y-61224500D01*
X98828711Y-61224500D01*
X98588214Y-61256161D01*
X98353895Y-61318947D01*
X98129794Y-61411773D01*
X98129785Y-61411777D01*
X97919706Y-61533067D01*
X97727263Y-61680733D01*
X97727256Y-61680739D01*
X97555739Y-61852256D01*
X97555733Y-61852263D01*
X97408067Y-62044706D01*
X97286777Y-62254785D01*
X97286773Y-62254794D01*
X97193947Y-62478895D01*
X97131161Y-62713214D01*
X97099500Y-62953711D01*
X95450500Y-62953711D01*
X95450500Y-59699500D01*
X95470185Y-59632461D01*
X95522989Y-59586706D01*
X95574500Y-59575500D01*
X125031634Y-59575500D01*
X125098673Y-59595185D01*
G37*
%TD.AperFunction*%
%TD*%
M02*
